<svg width="45" height="44" viewBox="0 0 45 44" fill="none" xmlns="http://www.w3.org/2000/svg">
<path d="M0.5 4C0.5 1.79086 2.29086 0 4.5 0H40.5C42.7091 0 44.5 1.79086 44.5 4V40C44.5 42.2091 42.7091 44 40.5 44H4.5C2.29086 44 0.5 42.2091 0.5 40V4Z" fill="#DBE2FF"/>
<path fill-rule="evenodd" clip-rule="evenodd" d="M17.5 13C16.9477 13 16.5 13.4477 16.5 14V30C16.5 30.5523 16.9477 31 17.5 31H27.5C28.0523 31 28.5 30.5523 28.5 30V14C28.5 13.4477 28.0523 13 27.5 13H17.5ZM14.5 14C14.5 12.3431 15.8431 11 17.5 11H27.5C29.1569 11 30.5 12.3431 30.5 14V30C30.5 31.6569 29.1569 33 27.5 33H17.5C15.8431 33 14.5 31.6569 14.5 30V14ZM21.5 28C21.5 27.4477 21.9477 27 22.5 27H22.51C23.0623 27 23.51 27.4477 23.51 28C23.51 28.5523 23.0623 29 22.51 29H22.5C21.9477 29 21.5 28.5523 21.5 28Z" fill="#1545F0"/>
</svg>
