<svg width="683" height="449" viewBox="0 0 683 449" fill="none" xmlns="http://www.w3.org/2000/svg">
<g clip-path="url(#clip0_41_1533)">
<path d="M670.757 449H12.2433C5.47819 449 0 443.519 0 436.75V39.3249C0 17.6091 17.5998 6.8905 39.3038 6.8905H643.696C665.4 6.8905 683 17.6091 683 39.3249V436.75C683 443.501 677.522 448.983 670.757 449Z" fill="url(#paint0_linear_41_1533)"/>
<g opacity="0.05">
<path d="M341.509 107.691H366.708L387.856 86.5496V40.3516H380.447V83.4872L363.648 100.296H341.509H319.352L302.553 83.4872V40.3516H295.161V86.5496L316.292 107.691H341.509Z" fill="white"/>
<path d="M164.537 324.1H189.406L224.293 289.195H458.707L493.594 324.1H518.463C520.132 331.13 526.463 336.385 534.011 336.385C542.828 336.385 549.993 329.216 549.993 320.394C549.993 311.572 542.828 304.403 534.011 304.403C526.48 304.403 520.15 309.658 518.463 316.687H496.655L461.768 281.782H221.232L186.345 316.687H164.537C162.868 309.658 156.537 304.403 149.007 304.403C140.19 304.403 133.024 311.572 133.024 320.394C133.024 329.216 140.19 336.385 149.007 336.385C156.537 336.385 162.85 331.147 164.537 324.1ZM534.011 311.815C538.741 311.815 542.584 315.661 542.584 320.394C542.584 325.127 538.741 328.972 534.011 328.972C529.28 328.972 525.437 325.127 525.437 320.394C525.437 315.661 529.28 311.815 534.011 311.815ZM140.416 320.411C140.416 315.678 144.259 311.833 148.989 311.833C153.72 311.833 157.563 315.678 157.563 320.411C157.563 325.144 153.72 328.99 148.989 328.99C144.259 328.99 140.416 325.127 140.416 320.411Z" fill="white"/>
<path d="M100.833 336.385C109.651 336.385 116.816 329.216 116.816 320.394C116.816 311.572 109.651 304.403 100.833 304.403C93.3031 304.403 86.9728 309.658 85.2859 316.687H0V324.1H85.2859C86.9554 331.147 93.2858 336.385 100.833 336.385ZM100.833 311.815C105.564 311.815 109.407 315.661 109.407 320.394C109.407 325.127 105.564 328.972 100.833 328.972C96.1031 328.972 92.2597 325.127 92.2597 320.394C92.2597 315.661 96.1031 311.815 100.833 311.815Z" fill="white"/>
<path d="M248.136 82.1299V99.6521L285.475 136.993H397.56L434.881 99.6521V82.1299C441.907 80.4595 447.16 74.1258 447.16 66.574C447.16 57.752 439.994 50.583 431.177 50.583C422.36 50.583 415.195 57.752 415.195 66.574C415.195 74.1084 420.447 80.4421 427.473 82.1299V96.5897L394.482 129.598H288.518L255.527 96.5897V82.1299C262.553 80.4595 267.805 74.1258 267.805 66.574C267.805 57.752 260.64 50.583 251.823 50.583C243.006 50.583 235.84 57.752 235.84 66.574C235.858 74.1258 241.093 80.4595 248.136 82.1299ZM422.603 66.5914C422.603 61.8585 426.447 58.013 431.177 58.013C435.908 58.013 439.751 61.8585 439.751 66.5914C439.751 71.3243 435.908 75.1698 431.177 75.1698C426.447 75.1698 422.603 71.3243 422.603 66.5914ZM251.84 58.013C256.571 58.013 260.414 61.8585 260.414 66.5914C260.414 71.3243 256.571 75.1698 251.84 75.1698C247.11 75.1698 243.266 71.3243 243.266 66.5914C243.266 61.8585 247.11 58.013 251.84 58.013Z" fill="white"/>
<path d="M47.7037 449H58.1732L81.6511 425.492H157.563V449H164.972V418.097H78.5903L47.7037 449Z" fill="white"/>
<path d="M341.509 380.825H318.639L296.901 402.593V449H304.309V405.656L321.718 388.238H341.509H361.3L378.708 405.656V449H386.099V402.593L364.361 380.825H341.509Z" fill="white"/>
<path d="M506.498 62.8851L416.516 152.897H341.613H341.404H266.484L176.519 62.8851H0V70.2977H173.441L263.423 160.31H341.404H341.613H419.595L509.559 70.2977H683V62.8851H506.498Z" fill="white"/>
<path d="M594.097 91.9612C586.375 91.9612 579.906 97.4771 578.427 104.785H526.602L446.707 184.723H236.275L156.398 104.785H104.573C103.094 97.4771 96.6422 91.9612 88.9206 91.9612C81.199 91.9612 74.7295 97.4771 73.2686 104.785H0V112.198H73.4947C75.3556 118.967 81.5468 123.943 88.9032 123.943C96.2596 123.943 102.451 118.967 104.312 112.198H153.337L233.232 192.135H449.786L529.68 112.198H578.706C580.567 118.967 586.758 123.943 594.114 123.943C601.471 123.943 607.662 118.967 609.523 112.198H683.017V104.785H609.766C608.288 97.4771 601.818 91.9612 594.097 91.9612ZM88.9032 116.531C84.1728 116.531 80.3294 112.685 80.3294 107.952C80.3294 103.219 84.1728 99.3737 88.9032 99.3737C93.6336 99.3737 97.477 103.219 97.477 107.952C97.477 112.685 93.6336 116.531 88.9032 116.531ZM594.097 116.531C589.366 116.531 585.523 112.685 585.523 107.952C585.523 103.219 589.366 99.3737 594.097 99.3737C598.827 99.3737 602.671 103.219 602.671 107.952C602.671 112.685 598.827 116.531 594.097 116.531Z" fill="white"/>
<path d="M582.184 304.42C573.367 304.42 566.202 311.589 566.202 320.411C566.202 329.233 573.367 336.402 582.184 336.402C589.714 336.402 596.045 331.147 597.732 324.117H683.017V316.705H597.732C596.045 309.658 589.714 304.42 582.184 304.42ZM582.184 328.99C577.454 328.99 573.61 325.144 573.61 320.411C573.61 315.678 577.454 311.833 582.184 311.833C586.914 311.833 590.758 315.678 590.758 320.411C590.758 325.144 586.914 328.99 582.184 328.99Z" fill="white"/>
<path d="M543.367 263.233H494.481L471.333 240.073H211.667L188.519 263.233H139.633L99.9639 223.543H0V230.956H96.9031L129.164 263.233H62.5731C60.9036 256.204 54.5732 250.949 47.0255 250.949C38.2082 250.949 31.0431 258.118 31.0431 266.94C31.0431 275.762 38.2082 282.931 47.0255 282.931C54.5558 282.931 60.8862 277.676 62.5731 270.646H191.58L214.728 247.486H468.272L491.42 270.646H620.427C622.096 277.676 628.427 282.931 635.974 282.931C644.792 282.931 651.957 275.762 651.957 266.94C651.957 258.118 644.792 250.949 635.974 250.949C628.444 250.949 622.114 256.204 620.427 263.233H553.836L586.097 230.956H683V223.543H583.036L543.367 263.233ZM47.0429 275.501C42.3125 275.501 38.4691 271.655 38.4691 266.922C38.4691 262.189 42.3125 258.344 47.0429 258.344C51.7733 258.344 55.6167 262.189 55.6167 266.922C55.6167 271.655 51.7733 275.501 47.0429 275.501ZM635.957 258.344C640.688 258.344 644.531 262.189 644.531 266.922C644.531 271.655 640.688 275.501 635.957 275.501C631.227 275.501 627.383 271.655 627.383 266.922C627.383 262.189 631.244 258.344 635.957 258.344Z" fill="white"/>
<path d="M341.509 328.989H269.249L202.084 396.19V449H209.493V399.252L272.327 336.385H304.953L260.414 380.947V406.247C253.388 407.918 248.136 414.251 248.136 421.803C248.136 430.625 255.301 437.794 264.118 437.794C272.936 437.794 280.101 430.625 280.101 421.803C280.101 414.269 274.849 407.935 267.823 406.247V384.009L315.422 336.385H367.613L415.212 384.009V406.247C408.186 407.918 402.934 414.251 402.934 421.803C402.934 430.625 410.099 437.794 418.916 437.794C427.734 437.794 434.899 430.625 434.899 421.803C434.899 414.269 429.647 407.935 422.621 406.247V380.947L378.082 336.385H410.708L473.542 399.252V449H480.95V396.19L413.786 328.989H341.509ZM272.692 421.803C272.692 426.536 268.849 430.382 264.118 430.382C259.388 430.382 255.545 426.536 255.545 421.803C255.545 417.07 259.388 413.225 264.118 413.225C268.849 413.225 272.692 417.07 272.692 421.803ZM427.473 421.803C427.473 426.536 423.629 430.382 418.899 430.382C414.169 430.382 410.325 426.536 410.325 421.803C410.325 417.07 414.169 413.225 418.899 413.225C423.629 413.225 427.473 417.07 427.473 421.803Z" fill="white"/>
<path d="M443.247 306.473L442.168 305.395H240.849L187.093 359.179H0V366.592H179.685L156.676 389.595H70.9904C69.3209 382.565 62.9905 377.31 55.4428 377.31C46.6255 377.31 39.4604 384.479 39.4604 393.301C39.4604 402.123 46.6255 409.292 55.4428 409.292C62.9731 409.292 69.3035 404.037 70.9904 397.008H159.737L243.91 312.807H439.09L522.167 395.929L523.245 397.008H611.992C613.662 404.037 619.992 409.292 627.54 409.292C636.357 409.292 643.522 402.123 643.522 393.301C643.522 384.479 636.357 377.31 627.54 377.31C620.009 377.31 613.679 382.565 611.992 389.595H526.306L503.298 366.574H682.983V359.162H495.924L443.247 306.473ZM55.4602 401.88C50.7298 401.88 46.8864 398.034 46.8864 393.301C46.8864 388.568 50.7298 384.723 55.4602 384.723C60.1905 384.723 64.034 388.568 64.034 393.301C64.034 398.034 60.1905 401.88 55.4602 401.88ZM627.557 384.723C632.288 384.723 636.131 388.568 636.131 393.301C636.131 398.034 632.288 401.88 627.557 401.88C622.827 401.88 618.983 398.034 618.983 393.301C618.983 388.568 622.827 384.723 627.557 384.723Z" fill="white"/>
<path d="M578.167 159.962H637.505C639.174 166.992 645.505 172.247 653.053 172.247C661.87 172.247 669.035 165.078 669.035 156.256C669.035 147.434 661.87 140.265 653.053 140.265C645.522 140.265 639.192 145.52 637.505 152.549H560.323L506.48 206.421H176.519L122.677 152.567H45.4951C43.8255 145.537 37.4952 140.282 29.9474 140.282C21.1302 140.282 13.965 147.451 13.965 156.273C13.965 165.095 21.1302 172.264 29.9474 172.264C37.4778 172.264 43.8081 167.009 45.4951 159.979H104.833L72.973 191.857H0V199.269H76.0686L115.32 159.997H119.616L173.459 213.868H509.559L563.402 159.997H567.697L606.949 199.269H683.017V191.857H610.027L578.167 159.962ZM653.053 147.695C657.783 147.695 661.626 151.54 661.626 156.273C661.626 161.006 657.783 164.851 653.053 164.851C648.322 164.851 644.479 161.006 644.479 156.273C644.479 151.54 648.322 147.695 653.053 147.695ZM29.9648 164.851C25.2345 164.851 21.391 161.006 21.391 156.273C21.391 151.54 25.2345 147.695 29.9648 147.695C34.6952 147.695 38.5386 151.54 38.5386 156.273C38.5386 161.006 34.6952 164.851 29.9648 164.851Z" fill="white"/>
<path d="M518.046 418.097V449H525.437V425.492H601.366L624.844 449H635.314L604.427 418.097H518.046Z" fill="white"/>
</g>
<path d="M12.2433 0H670.774C677.539 0 683.017 5.48113 683.017 12.2499V40.3689H0V12.2499C0 5.48113 5.47819 0 12.2433 0Z" fill="#003399"/>
<path d="M29.9648 25.422C26.7823 25.422 24.1562 23.1077 23.6345 20.0801C23.5649 20.4281 23.5475 20.7935 23.5475 21.1763C23.5475 24.726 26.417 27.5971 29.9648 27.5971C33.5126 27.5971 36.3821 24.726 36.3821 21.1763C36.3821 20.8109 36.3474 20.4455 36.2952 20.0801C35.7734 23.1251 33.13 25.422 29.9648 25.422Z" fill="#9C232D"/>
<path d="M29.9648 25.422C33.1474 25.422 35.7734 23.1078 36.2952 20.0801C35.7734 17.0524 33.1474 14.7382 29.9648 14.7382C26.7822 14.7382 24.1562 17.0524 23.6345 20.0801C24.1562 23.1252 26.7822 25.422 29.9648 25.422Z" fill="#D63035"/>
<path d="M49.0255 25.422C45.8429 25.422 43.2168 23.1077 42.6951 20.0801C42.6255 20.4281 42.6082 20.7935 42.6082 21.1763C42.6082 24.726 45.4777 27.5971 49.0255 27.5971C52.5732 27.5971 55.4428 24.726 55.4428 21.1763C55.4428 20.8109 55.408 20.4455 55.3558 20.0801C54.8341 23.1251 52.208 25.422 49.0255 25.422Z" fill="#E09500"/>
<path d="M49.0255 25.422C52.208 25.422 54.8341 23.1078 55.3558 20.0801C54.8341 17.0524 52.208 14.7382 49.0255 14.7382C45.8429 14.7382 43.2168 17.0524 42.6951 20.0801C43.2168 23.1252 45.8603 25.422 49.0255 25.422Z" fill="#FFB000"/>
<path d="M68.1035 25.422C64.9209 25.422 62.2948 23.1077 61.7731 20.0801C61.7035 20.4281 61.6862 20.7935 61.6862 21.1763C61.6862 24.726 64.5557 27.5971 68.1035 27.5971C71.6512 27.5971 74.5208 24.726 74.5208 21.1763C74.5208 20.8109 74.486 20.4455 74.4338 20.0801C73.9121 23.1251 71.2686 25.422 68.1035 25.422Z" fill="#3D8C46"/>
<path d="M68.1035 25.422C71.286 25.422 73.9121 23.1078 74.4338 20.0801C73.9121 17.0524 71.286 14.7382 68.1035 14.7382C64.9209 14.7382 62.2948 17.0524 61.7731 20.0801C62.2948 23.1252 64.9209 25.422 68.1035 25.422Z" fill="#54B448"/>
<path opacity="0.5" d="M683 40.3516H0V42.5788H683V40.3516Z" fill="white"/>
<path opacity="0.1" d="M341.613 396.555L341.509 396.59L330.796 391.735C303.474 379.346 279.788 363.999 260.414 346.164C243.44 330.538 229.545 312.79 219.128 293.44C200.258 258.413 196.311 225.022 196.328 203.167L196.241 194.815C196.137 164.712 197.841 152.497 198.032 151.21L200.519 134.627L216.397 130.19C216.954 129.998 220.797 128.659 224.206 125.979C228.119 122.882 228.432 120.533 228.432 118.375V100.661L244.936 94.2232L341.474 56.6558L341.578 56.6906L341.683 56.6558L454.725 100.661V118.375C454.725 120.533 455.055 122.899 458.951 125.979C462.185 128.537 465.82 129.877 466.638 130.155L483.176 134.331L485.142 151.314C485.385 152.95 487.02 165.269 486.933 194.815L486.846 203.167C486.863 225.022 482.916 258.413 464.046 293.458C453.629 312.807 439.734 330.538 422.76 346.164C403.386 363.999 379.7 379.329 352.378 391.718L341.665 396.573L341.613 396.555Z" fill="url(#paint1_linear_41_1533)"/>
<path d="M428.655 118.392V147.12L341.509 113.207V84.4615L428.655 118.392Z" fill="url(#paint2_linear_41_1533)"/>
<path d="M459.368 155.09V183.835C459.368 183.835 459.751 185.784 460.116 189.299C460.464 192.605 460.794 197.286 460.794 203.063L460.881 194.745C460.968 165.739 459.368 155.09 459.368 155.09Z" fill="#2F38D6"/>
<path d="M459.368 155.09C459.368 155.09 428.655 146.564 428.655 118.392V147.12C428.655 170.002 448.933 179.938 456.533 182.843H456.551C456.638 182.878 456.725 182.913 456.812 182.948C456.829 182.965 456.864 182.965 456.881 182.983C456.968 183.017 457.055 183.052 457.142 183.087C457.142 183.087 457.142 183.087 457.159 183.087C457.246 183.122 457.333 183.139 457.403 183.174C457.42 183.174 457.438 183.191 457.455 183.191C457.612 183.244 457.768 183.313 457.925 183.348C457.942 183.348 457.959 183.365 457.977 183.365C458.046 183.383 458.116 183.418 458.185 183.435C458.255 183.452 458.307 183.47 458.377 183.505C458.394 183.505 458.412 183.522 458.412 183.522C458.533 183.557 458.638 183.592 458.742 183.626C458.759 183.626 458.759 183.626 458.777 183.644C458.829 183.661 458.864 183.679 458.916 183.679C458.951 183.696 458.985 183.696 459.02 183.713C459.038 183.713 459.038 183.713 459.055 183.731C459.125 183.748 459.177 183.766 459.229 183.783H459.246C459.264 183.783 459.281 183.8 459.298 183.8C459.316 183.8 459.316 183.8 459.333 183.8H459.351L459.368 155.09Z" fill="url(#paint3_linear_41_1533)"/>
<path d="M254.362 118.392V147.12L341.509 113.207V84.4615L254.362 118.392Z" fill="url(#paint4_linear_41_1533)"/>
<path d="M223.649 155.09V183.835C223.649 183.835 223.267 185.784 222.902 189.299C222.554 192.605 222.223 197.286 222.223 203.063L222.136 194.745C222.032 165.739 223.649 155.09 223.649 155.09Z" fill="#3440D5"/>
<path d="M223.649 155.09C223.649 155.09 254.362 146.564 254.362 118.392V147.12C254.362 170.002 234.084 179.938 226.484 182.843H226.467C226.38 182.878 226.293 182.913 226.206 182.948C226.171 182.965 226.154 182.965 226.136 182.983C226.049 183.017 225.962 183.052 225.875 183.087C225.875 183.087 225.875 183.087 225.858 183.087C225.771 183.122 225.684 183.139 225.615 183.174C225.597 183.174 225.58 183.191 225.562 183.191C225.406 183.244 225.249 183.313 225.093 183.348C225.075 183.348 225.058 183.365 225.041 183.365C224.971 183.383 224.901 183.418 224.832 183.435C224.762 183.452 224.71 183.47 224.641 183.505C224.623 183.505 224.606 183.522 224.606 183.522C224.484 183.557 224.38 183.592 224.275 183.626C224.258 183.626 224.258 183.626 224.241 183.644C224.188 183.661 224.154 183.679 224.101 183.679C224.067 183.696 224.032 183.696 223.997 183.713C223.98 183.713 223.98 183.713 223.962 183.731C223.893 183.748 223.841 183.766 223.788 183.783H223.771C223.754 183.783 223.736 183.8 223.719 183.8C223.702 183.8 223.701 183.8 223.684 183.8H223.667L223.649 155.09Z" fill="url(#paint5_linear_41_1533)"/>
<path d="M254.362 147.12C254.362 175.292 223.649 183.818 223.649 183.818C223.649 183.818 223.267 185.767 222.902 189.282C220.397 213.486 218.328 312.268 341.509 368.14V113.207L254.362 147.12Z" fill="url(#paint6_linear_41_1533)"/>
<path d="M460.098 189.299C459.733 185.784 459.351 183.835 459.351 183.835C459.351 183.835 458.272 183.539 456.516 182.861C448.916 179.938 428.638 170.019 428.638 147.138L341.491 113.224V368.175C442.638 322.29 459.333 247.468 460.672 208.77C460.985 200.331 460.551 193.614 460.098 189.299Z" fill="url(#paint7_linear_41_1533)"/>
<path d="M358.448 268.262L350.604 239.395L349.404 235.045C354.795 232.208 358.465 226.536 358.465 220.028C358.465 210.649 350.865 203.045 341.491 203.045C332.117 203.045 324.518 210.649 324.518 220.028C324.518 226.553 328.187 232.208 333.578 235.045L332.378 239.395L325.752 263.86L324.274 269.184C325.231 270.837 327.022 272.003 329.144 272.003H353.787C355.909 272.003 357.7 270.855 358.656 269.184L358.448 268.262Z" fill="#132C7A"/>
<path d="M358.465 220.011C358.465 226.536 354.795 232.191 349.404 235.027L350.604 239.377C368.152 229.964 361.439 203.045 341.509 203.028C350.865 203.045 358.465 210.649 358.465 220.011Z" fill="url(#paint8_linear_41_1533)"/>
<path d="M324.535 220.011C324.535 210.632 332.135 203.028 341.509 203.028C321.561 203.063 314.883 229.981 332.413 239.377L333.613 235.027C328.222 232.191 324.535 226.536 324.535 220.011Z" fill="url(#paint9_linear_41_1533)"/>
<path d="M358.691 269.184C357.735 270.837 355.943 272.003 353.822 272.003H329.178C327.057 272.003 325.265 270.855 324.309 269.184L323.752 271.185C322.761 274.77 325.457 278.302 329.178 278.302H353.822C357.543 278.302 360.239 274.77 359.248 271.185L358.691 269.184Z" fill="url(#paint10_linear_41_1533)"/>
<path d="M253.597 253.802V233.879C260.014 232.348 264.814 226.571 264.814 219.68C264.814 211.641 258.275 205.081 250.223 205.081C242.171 205.081 235.632 211.624 235.632 219.68C235.632 226.571 240.414 232.348 246.849 233.879V256.604L278.71 288.481V327.789C280.883 329.772 283.127 331.739 285.475 333.67V285.68L253.597 253.802ZM242.38 219.68C242.38 215.365 245.893 211.85 250.206 211.85C254.519 211.85 258.032 215.365 258.032 219.68C258.032 223.995 254.519 227.51 250.206 227.51C245.893 227.51 242.38 224.013 242.38 219.68Z" fill="url(#paint11_linear_41_1533)"/>
<path d="M388.934 268.68V288.777C382.517 290.308 377.717 296.085 377.717 302.976C377.717 311.015 384.256 317.575 392.308 317.575C400.36 317.575 406.899 311.032 406.899 302.976C406.899 296.085 402.117 290.308 395.682 288.777V211.659L374.552 190.517V126.066L367.787 123.438V193.301L388.917 214.443V259.109L361.387 286.689V358.187C363.682 356.917 365.943 355.629 368.152 354.324V289.491L388.934 268.68ZM392.325 295.128C396.638 295.128 400.151 298.643 400.151 302.958C400.151 307.274 396.638 310.789 392.325 310.789C388.012 310.789 384.499 307.274 384.499 302.958C384.499 298.643 388.012 295.128 392.325 295.128Z" fill="url(#paint12_linear_41_1533)"/>
<path d="M294.066 265.478V220.811L321.613 193.249V120.933L314.848 123.56V190.413L294.066 211.241V180.494C300.483 178.963 305.283 173.186 305.283 166.296C305.283 158.257 298.744 151.697 290.692 151.697C282.64 151.697 276.101 158.239 276.101 166.296C276.101 173.186 280.883 178.963 287.318 180.494V268.262L308.448 289.404V350.357C310.64 351.749 312.9 353.124 315.213 354.498V286.602L294.066 265.478ZM282.849 166.296C282.849 161.98 286.362 158.466 290.675 158.466C294.988 158.466 298.501 161.98 298.501 166.296C298.501 170.611 294.988 174.126 290.675 174.126C286.362 174.126 282.849 170.628 282.849 166.296Z" fill="url(#paint13_linear_41_1533)"/>
<path d="M429.421 204.142V224.065C423.003 225.596 418.203 231.373 418.203 238.264C418.203 246.303 424.742 252.863 432.795 252.863C440.847 252.863 447.386 246.32 447.386 238.264C447.386 231.373 442.603 225.596 436.186 224.065V201.34L404.325 169.463V137.655L397.56 135.027V172.264L429.421 204.142ZM440.621 238.264C440.621 242.579 437.108 246.094 432.795 246.094C428.482 246.094 424.969 242.579 424.969 238.264C424.969 233.949 428.482 230.434 432.795 230.434C437.108 230.434 440.621 233.931 440.621 238.264Z" fill="url(#paint14_linear_41_1533)"/>
<path d="M200.119 306.578H194.745V301.201C194.745 300.592 194.241 300.087 193.632 300.087H189.267C188.658 300.087 188.154 300.592 188.154 301.201V306.578H182.78C182.172 306.578 181.667 307.082 181.667 307.691V312.059C181.667 312.668 182.172 313.172 182.78 313.172H188.154V318.549C188.154 319.158 188.658 319.663 189.267 319.663H193.632C194.241 319.663 194.745 319.158 194.745 318.549V313.172H200.119C200.728 313.172 201.232 312.668 201.232 312.059V307.691C201.232 307.082 200.728 306.578 200.119 306.578Z" fill="#F8C655"/>
<path d="M520.463 214.599H515.089V209.222C515.089 208.613 514.585 208.109 513.976 208.109H509.611C509.002 208.109 508.498 208.613 508.498 209.222V214.599H503.124C502.515 214.599 502.011 215.104 502.011 215.713V220.08C502.011 220.689 502.515 221.194 503.124 221.194H508.498V226.571C508.498 227.18 509.002 227.684 509.611 227.684H513.976C514.585 227.684 515.089 227.18 515.089 226.571V221.194H520.463C521.072 221.194 521.576 220.689 521.576 220.08V215.713C521.576 215.104 521.072 214.599 520.463 214.599Z" fill="#F8C655"/>
<path d="M219.336 78.7194H213.963V73.3426C213.963 72.7336 213.458 72.229 212.849 72.229H208.484C207.876 72.229 207.371 72.7336 207.371 73.3426V78.7194H201.997C201.389 78.7194 200.884 79.224 200.884 79.833V84.2179C200.884 84.8269 201.389 85.3315 201.997 85.3315H207.371V90.7082C207.371 91.3172 207.876 91.8219 208.484 91.8219H212.849C213.458 91.8219 213.963 91.3172 213.963 90.7082V85.3315H219.336C219.945 85.3315 220.449 84.8269 220.449 84.2179V79.8504C220.449 79.224 219.945 78.7194 219.336 78.7194Z" fill="white"/>
<g opacity="0.5">
<path d="M495.542 93.9448H623.105C626.34 93.9448 628.949 96.5723 628.949 99.7914V164.19C628.949 167.427 626.322 170.037 623.105 170.037H495.542C492.307 170.037 489.698 167.409 489.698 164.19V99.8088C489.698 96.5723 492.307 93.9448 495.542 93.9448Z" fill="#3B63F1"/>
<path d="M623.105 94.3972C626.096 94.3972 628.514 96.8158 628.514 99.8087V164.208C628.514 167.2 626.096 169.619 623.105 169.619H495.542C492.55 169.619 490.133 167.2 490.133 164.208V99.8087C490.133 96.8158 492.55 94.3972 495.542 94.3972H623.105ZM623.105 93.5098H495.542C492.063 93.5098 489.246 96.3286 489.246 99.8087V164.208C489.246 167.688 492.063 170.507 495.542 170.507H623.105C626.583 170.507 629.401 167.688 629.401 164.208V99.8087C629.401 96.3286 626.566 93.5098 623.105 93.5098Z" fill="white"/>
</g>
<path d="M616.67 108.23H501.994V120.028H616.67V108.23Z" fill="#86A0FF"/>
<path d="M555.628 138.42H501.994V144.093H555.628V138.42Z" fill="#86A0FF"/>
<path d="M570.619 138.42H561.558V144.093H570.619V138.42Z" fill="#86A0FF"/>
<path d="M609.384 138.42H576.828V144.093H609.384V138.42Z" fill="#86A0FF"/>
<path d="M555.628 149.8H501.994V155.473H555.628V149.8Z" fill="#86A0FF"/>
<path d="M616.653 149.8H565.141V155.473H616.653V149.8Z" fill="#86A0FF"/>
<path d="M546.132 127.267H501.994V132.939H546.132V127.267Z" fill="#86A0FF"/>
<path d="M609.384 127.267H554.271V132.939H609.384V127.267Z" fill="#86A0FF"/>
<g opacity="0.5">
<path d="M501.368 344.702H628.931C632.166 344.702 634.775 347.329 634.775 350.549V414.947C634.775 418.184 632.148 420.794 628.931 420.794H501.368C498.133 420.794 495.524 418.167 495.524 414.947V350.549C495.507 347.329 498.133 344.702 501.368 344.702Z" fill="#3B63F1"/>
<path d="M628.914 345.154C631.905 345.154 634.322 347.573 634.322 350.566V414.965C634.322 417.958 631.905 420.376 628.914 420.376H501.35C498.359 420.376 495.941 417.958 495.941 414.965V350.566C495.941 347.573 498.359 345.154 501.35 345.154H628.914ZM628.914 344.267H501.35C497.872 344.267 495.055 347.086 495.055 350.566V414.965C495.055 418.445 497.872 421.264 501.35 421.264H628.914C632.392 421.264 635.209 418.445 635.209 414.965V350.566C635.209 347.086 632.392 344.267 628.914 344.267Z" fill="white"/>
</g>
<path d="M561.436 389.177H507.802V394.85H561.436V389.177Z" fill="#86A0FF"/>
<path d="M576.427 389.177H567.367V394.85H576.427V389.177Z" fill="#86A0FF"/>
<path d="M615.21 389.177H582.653V394.85H615.21V389.177Z" fill="#86A0FF"/>
<path d="M561.436 400.557H507.802V406.23H561.436V400.557Z" fill="#86A0FF"/>
<path d="M622.462 400.557H570.949V406.23H622.462V400.557Z" fill="#86A0FF"/>
<path d="M551.941 378.024H507.802V383.696H551.941V378.024Z" fill="#86A0FF"/>
<path d="M615.21 378.024H560.097V383.696H615.21V378.024Z" fill="#86A0FF"/>
<path d="M57.4949 341.344H186.032C189.024 341.344 191.441 343.762 191.441 346.755V414.913C191.441 417.906 189.024 420.324 186.032 420.324H57.4949C54.5037 420.324 52.0863 417.906 52.0863 414.913V346.755C52.0863 343.762 54.5211 341.344 57.4949 341.344Z" fill="#3B63F1"/>
<path d="M191.424 352.306H52.0863V373.152H191.424V352.306Z" fill="url(#paint15_linear_41_1533)"/>
<path d="M118.033 398.33H64.034V404.037H118.033V398.33Z" fill="#86A0FF"/>
<path d="M179.493 398.33H127.616V404.037H179.493V398.33Z" fill="#86A0FF"/>
<path d="M118.033 407.761H64.034V413.468H118.033V407.761Z" fill="#86A0FF"/>
<path d="M179.493 407.761H127.616V413.468H179.493V407.761Z" fill="#86A0FF"/>
<path d="M138.016 378.372H64.034V390.343H138.016V378.372Z" fill="#86A0FF"/>
<g opacity="0.5">
<path d="M57.6688 132.487H146.259C149.581 132.487 152.276 135.184 152.276 138.507V267.218C152.276 270.541 149.581 273.239 146.259 273.239H57.6688C54.3471 273.239 51.6515 270.541 51.6515 267.218V138.507C51.6515 135.184 54.3471 132.487 57.6688 132.487Z" fill="#3B63F1"/>
<path d="M146.259 132.939C149.337 132.939 151.842 135.445 151.842 138.525V267.235C151.842 270.315 149.337 272.821 146.259 272.821H57.6688C54.5906 272.821 52.0863 270.315 52.0863 267.235V138.507C52.0863 135.427 54.5906 132.922 57.6688 132.922H146.259M146.259 132.052H57.6688C54.1037 132.052 51.1993 134.957 51.1993 138.525V267.235C51.1993 270.802 54.1037 273.708 57.6688 273.708H146.259C149.824 273.708 152.728 270.802 152.728 267.235V138.507C152.728 134.94 149.824 132.052 146.259 132.052Z" fill="white"/>
</g>
<path d="M101.964 203.48C115.66 203.48 126.764 192.371 126.764 178.667C126.764 164.964 115.66 153.854 101.964 153.854C88.2674 153.854 77.1642 164.964 77.1642 178.667C77.1642 192.371 88.2674 203.48 101.964 203.48Z" fill="url(#paint16_linear_41_1533)"/>
<path d="M101.964 199.513C113.47 199.513 122.798 190.18 122.798 178.667C122.798 167.155 113.47 157.822 101.964 157.822C90.4573 157.822 81.1294 167.155 81.1294 178.667C81.1294 190.18 90.4573 199.513 101.964 199.513Z" fill="white"/>
<path d="M101.964 178.685C104.644 178.685 106.816 176.511 106.816 173.83C106.816 171.149 104.644 168.975 101.964 168.975C99.2842 168.975 97.1118 171.149 97.1118 173.83C97.1118 176.511 99.2842 178.685 101.964 178.685Z" fill="#F8C655"/>
<path d="M108.433 191.526H95.4944C94.1901 191.526 93.1292 190.465 93.1292 189.16V185.384C93.1292 182.722 95.2857 180.564 97.9466 180.564H105.999C108.659 180.564 110.816 182.722 110.816 185.384V189.16C110.799 190.465 109.738 191.526 108.433 191.526Z" fill="#F8C655"/>
<path d="M89.6684 252.149H114.259C115.251 252.149 116.051 252.95 116.051 253.941V255.003C116.051 255.995 115.251 256.795 114.259 256.795H89.6684C88.6771 256.795 87.8771 255.995 87.8771 255.003V253.941C87.8945 252.932 88.6771 252.149 89.6684 252.149Z" fill="#F8C655"/>
<path d="M69.2861 228.693H134.642C137.268 228.693 139.39 230.816 139.39 233.444V236.28C139.39 238.908 137.268 241.03 134.642 241.03H69.2861C66.66 241.03 64.5383 238.908 64.5383 236.28V233.444C64.5383 230.834 66.66 228.693 69.2861 228.693Z" fill="#86A0FF"/>
<g opacity="0.5">
<path d="M73.9643 236.593C74.9151 236.593 75.686 235.822 75.686 234.871C75.686 233.919 74.9151 233.148 73.9643 233.148C73.0134 233.148 72.2426 233.919 72.2426 234.871C72.2426 235.822 73.0134 236.593 73.9643 236.593Z" fill="#3B63F1"/>
</g>
<g opacity="0.5">
<path d="M81.825 236.593C82.7759 236.593 83.5468 235.822 83.5468 234.871C83.5468 233.919 82.7759 233.148 81.825 233.148C80.8742 233.148 80.1033 233.919 80.1033 234.871C80.1033 235.822 80.8742 236.593 81.825 236.593Z" fill="#3B63F1"/>
</g>
<g opacity="0.5">
<path d="M89.6858 236.593C90.6367 236.593 91.4075 235.822 91.4075 234.871C91.4075 233.919 90.6367 233.148 89.6858 233.148C88.7349 233.148 87.9641 233.919 87.9641 234.871C87.9641 235.822 88.7349 236.593 89.6858 236.593Z" fill="#3B63F1"/>
</g>
<g opacity="0.5">
<path d="M97.5466 236.593C98.4975 236.593 99.2683 235.822 99.2683 234.871C99.2683 233.919 98.4975 233.148 97.5466 233.148C96.5957 233.148 95.8249 233.919 95.8249 234.871C95.8249 235.822 96.5957 236.593 97.5466 236.593Z" fill="#3B63F1"/>
</g>
<g opacity="0.5">
<path d="M105.407 236.593C106.358 236.593 107.129 235.822 107.129 234.871C107.129 233.919 106.358 233.148 105.407 233.148C104.456 233.148 103.686 233.919 103.686 234.871C103.686 235.822 104.456 236.593 105.407 236.593Z" fill="#3B63F1"/>
</g>
<g opacity="0.5">
<path d="M113.268 236.593C114.219 236.593 114.99 235.822 114.99 234.871C114.99 233.919 114.219 233.148 113.268 233.148C112.317 233.148 111.546 233.919 111.546 234.871C111.546 235.822 112.317 236.593 113.268 236.593Z" fill="#3B63F1"/>
</g>
<g opacity="0.5">
<path d="M121.129 236.593C122.08 236.593 122.851 235.822 122.851 234.871C122.851 233.919 122.08 233.148 121.129 233.148C120.178 233.148 119.407 233.919 119.407 234.871C119.407 235.822 120.178 236.593 121.129 236.593Z" fill="#3B63F1"/>
</g>
<g opacity="0.5">
<path d="M129.007 236.593C129.958 236.593 130.729 235.822 130.729 234.871C130.729 233.919 129.958 233.148 129.007 233.148C128.056 233.148 127.285 233.919 127.285 234.871C127.285 235.822 128.056 236.593 129.007 236.593Z" fill="#3B63F1"/>
</g>
<path d="M69.2861 210.962H134.642C137.268 210.962 139.39 213.085 139.39 215.713V218.549C139.39 221.176 137.268 223.299 134.642 223.299H69.2861C66.66 223.299 64.5383 221.176 64.5383 218.549V215.713C64.5383 213.103 66.66 210.962 69.2861 210.962Z" fill="#86A0FF"/>
<g opacity="0.5">
<path d="M73.9643 218.862C74.9151 218.862 75.686 218.091 75.686 217.14C75.686 216.188 74.9151 215.417 73.9643 215.417C73.0134 215.417 72.2426 216.188 72.2426 217.14C72.2426 218.091 73.0134 218.862 73.9643 218.862Z" fill="#3B63F1"/>
</g>
<g opacity="0.5">
<path d="M81.825 218.862C82.7759 218.862 83.5468 218.091 83.5468 217.14C83.5468 216.188 82.7759 215.417 81.825 215.417C80.8742 215.417 80.1033 216.188 80.1033 217.14C80.1033 218.091 80.8742 218.862 81.825 218.862Z" fill="#3B63F1"/>
</g>
<g opacity="0.5">
<path d="M89.6858 218.862C90.6367 218.862 91.4075 218.091 91.4075 217.14C91.4075 216.188 90.6367 215.417 89.6858 215.417C88.7349 215.417 87.9641 216.188 87.9641 217.14C87.9641 218.091 88.7349 218.862 89.6858 218.862Z" fill="#3B63F1"/>
</g>
<g opacity="0.5">
<path d="M97.5466 218.862C98.4975 218.862 99.2683 218.091 99.2683 217.14C99.2683 216.188 98.4975 215.417 97.5466 215.417C96.5957 215.417 95.8249 216.188 95.8249 217.14C95.8249 218.091 96.5957 218.862 97.5466 218.862Z" fill="#3B63F1"/>
</g>
<g opacity="0.5">
<path d="M105.407 218.862C106.358 218.862 107.129 218.091 107.129 217.14C107.129 216.188 106.358 215.417 105.407 215.417C104.456 215.417 103.686 216.188 103.686 217.14C103.686 218.091 104.456 218.862 105.407 218.862Z" fill="#3B63F1"/>
</g>
<g opacity="0.5">
<path d="M113.268 218.862C114.219 218.862 114.99 218.091 114.99 217.14C114.99 216.188 114.219 215.417 113.268 215.417C112.317 215.417 111.546 216.188 111.546 217.14C111.546 218.091 112.317 218.862 113.268 218.862Z" fill="#3B63F1"/>
</g>
<g opacity="0.5">
<path d="M121.129 218.862C122.08 218.862 122.851 218.091 122.851 217.14C122.851 216.188 122.08 215.417 121.129 215.417C120.178 215.417 119.407 216.188 119.407 217.14C119.407 218.091 120.178 218.862 121.129 218.862Z" fill="#3B63F1"/>
</g>
<g opacity="0.5">
<path d="M129.007 218.862C129.958 218.862 130.729 218.091 130.729 217.14C130.729 216.188 129.958 215.417 129.007 215.417C128.056 215.417 127.285 216.188 127.285 217.14C127.285 218.091 128.056 218.862 129.007 218.862Z" fill="#3B63F1"/>
</g>
<path opacity="0.5" d="M503.326 100.559C510.614 93.2678 510.614 81.4463 503.326 74.155C496.039 66.8638 484.224 66.8638 476.936 74.155C469.649 81.4463 469.649 93.2678 476.936 100.559C484.224 107.85 496.039 107.85 503.326 100.559Z" fill="white"/>
<path d="M490.133 102.227C498.345 102.227 505.002 95.5665 505.002 87.35C505.002 79.1335 498.345 72.4727 490.133 72.4727C481.921 72.4727 475.264 79.1335 475.264 87.35C475.264 95.5665 481.921 102.227 490.133 102.227Z" fill="white"/>
<path d="M497.959 82.7389L489.994 94.5016C489.75 94.8496 489.385 95.0932 489.02 95.0932C488.655 95.0932 488.237 94.8844 487.976 94.6234L483.298 89.9427C482.985 89.6295 482.985 89.1075 483.298 88.7943L484.446 87.6285C484.759 87.3152 485.281 87.3152 485.594 87.6285L488.637 90.6735L495.263 80.9119C495.507 80.5465 496.028 80.4421 496.394 80.7031L497.75 81.6253C498.115 81.8689 498.202 82.3735 497.959 82.7389Z" fill="#F8C655"/>
<path opacity="0.5" d="M447.768 417.592C464.039 417.592 477.229 404.395 477.229 388.116C477.229 371.837 464.039 358.64 447.768 358.64C431.498 358.64 418.308 371.837 418.308 388.116C418.308 404.395 431.498 417.592 447.768 417.592Z" fill="white"/>
<path d="M447.786 412.999C461.511 412.999 472.637 401.866 472.637 388.133C472.637 374.401 461.511 363.268 447.786 363.268C434.06 363.268 422.934 374.401 422.934 388.133C422.934 401.866 434.06 412.999 447.786 412.999Z" fill="white"/>
<path d="M451.577 376.44L452.116 373.83C448.133 372.995 444.446 373.708 441.455 375.883C438.69 377.884 436.707 381.069 435.82 384.845C434.36 391.178 430.255 394.676 430.221 394.711L431.925 396.764C432.116 396.607 436.76 392.692 438.429 385.454C439.716 379.851 444.29 374.909 451.577 376.44ZM434.134 381.591C435.421 377.502 437.351 374.909 440.777 372.612L439.299 370.402C435.368 373.03 433.073 376.127 431.594 380.79C430.238 385.071 428.273 388.307 428.255 388.342L430.516 389.734C430.603 389.595 432.673 386.202 434.134 381.591ZM444.951 392.849C442.255 399.409 437.855 403.08 437.82 403.115L439.507 405.186C439.699 405.029 444.446 401.079 447.42 393.858L444.951 392.849ZM437.247 395.355C435.994 397.164 433.334 399.879 433.299 399.896L435.194 401.758C435.316 401.636 438.029 398.852 439.403 396.868L437.247 395.355ZM461.09 382.148C459.559 376.91 455.316 375.24 455.142 375.17L454.185 377.658C454.325 377.71 457.42 378.981 458.568 382.965C459.664 386.828 459.072 394.015 449.959 406.352L452.099 407.935C459.959 397.269 462.985 388.603 461.09 382.148ZM463.664 374.631C456.933 366 443.733 368.749 443.16 368.871L443.716 371.481C443.838 371.464 455.855 368.975 461.559 376.284C466.377 382.478 465.646 391.422 459.368 402.889L461.698 404.176C465.264 397.651 467.159 391.735 467.316 386.585C467.455 381.939 466.22 377.919 463.664 374.631ZM450.759 379.451C448.864 378.998 447.02 379.294 445.403 380.303C443.542 381.469 442.186 383.505 441.681 385.889C440.986 389.16 438.916 392.362 438.899 392.396L440.012 393.11L441.142 393.841C441.247 393.701 443.49 390.204 444.29 386.445C444.655 384.758 445.577 383.348 446.829 382.565C447.82 381.939 448.968 381.765 450.133 382.043C453.855 382.948 453.177 386.985 453.09 387.437C452.638 389.734 449.212 399.583 443.351 405.151L445.177 407.082C451.455 401.131 455.142 390.83 455.699 387.942C456.359 384.584 455.09 380.495 450.759 379.451ZM448.846 390.813C448.881 390.743 449.699 389.038 450.168 386.463L447.542 385.976C447.142 388.168 446.446 389.647 446.446 389.665L447.646 390.239L448.846 390.813Z" fill="#F8C655"/>
<g opacity="0.5">
<path d="M110.207 110.005C109.39 110.005 108.555 109.675 107.964 109.013C106.433 107.326 104.242 106.351 101.964 106.351C99.6857 106.351 97.4944 107.308 95.9814 108.996C94.851 110.232 92.9379 110.336 91.7032 109.205C90.4684 108.074 90.3641 106.16 91.4945 104.924C94.1553 101.984 97.9814 100.296 101.964 100.296C105.946 100.296 109.755 101.984 112.433 104.942C113.564 106.177 113.459 108.091 112.225 109.222C111.651 109.744 110.92 110.005 110.207 110.005Z" fill="white"/>
<path d="M116.92 102.419C116.155 102.419 115.372 102.123 114.781 101.531C111.355 98.1208 106.799 96.2416 101.964 96.2416C97.1292 96.2416 92.5553 98.1208 89.1467 101.514C87.9641 102.697 86.051 102.697 84.8685 101.496C83.6859 100.313 83.6859 98.3992 84.8858 97.216C89.4423 92.6745 95.5292 90.1688 101.981 90.1688C108.433 90.1688 114.503 92.6745 119.077 97.216C120.259 98.3992 120.259 100.313 119.094 101.496C118.485 102.123 117.703 102.419 116.92 102.419Z" fill="white"/>
<path d="M123.633 94.8495C122.885 94.8495 122.12 94.5711 121.546 94.0143C116.259 88.9508 109.32 86.1493 101.981 86.1493C94.6423 86.1493 87.6858 88.9334 82.4163 93.9969C81.2163 95.1627 79.2859 95.1105 78.1381 93.9099C76.9729 92.6919 77.0251 90.7778 78.2251 89.6294C84.625 83.4697 93.0771 80.094 101.981 80.094C110.886 80.094 119.32 83.4871 125.738 89.6468C126.938 90.8126 126.99 92.7267 125.824 93.9273C125.216 94.5363 124.433 94.8495 123.633 94.8495Z" fill="white"/>
<path d="M101.964 118.096C103.981 118.096 105.616 116.461 105.616 114.442C105.616 112.424 103.981 110.788 101.964 110.788C99.9469 110.788 98.3118 112.424 98.3118 114.442C98.3118 116.461 99.9469 118.096 101.964 118.096Z" fill="white"/>
</g>
<g opacity="0.2">
<path d="M650.479 253.976V237.272L630.601 234.018C629.418 229.32 627.575 224.883 625.14 220.829L636.722 204.298L624.914 192.501L608.618 204.229C604.549 201.758 600.097 199.878 595.366 198.713L591.905 178.928H575.193L571.975 198.66C567.228 199.826 562.758 201.671 558.671 204.124L542.428 192.518L530.619 204.316L542.045 220.672C539.576 224.761 537.697 229.233 536.515 234.018L516.88 237.289V253.994L536.48 257.474C537.663 262.241 539.541 266.713 542.028 270.82L530.445 287.037L542.254 298.852L558.619 287.385C562.706 289.839 567.175 291.7 571.906 292.866L575.175 312.598H591.888L595.401 292.814C600.114 291.631 604.566 289.734 608.618 287.281L625.088 298.852L636.896 287.037L625.14 270.698C627.575 266.626 629.418 262.207 630.583 257.491L650.479 253.976ZM583.697 269.062C570.827 269.062 560.41 258.64 560.41 245.763C560.41 232.887 570.827 222.464 583.697 222.464C596.566 222.464 606.984 232.887 606.984 245.763C606.984 258.64 596.549 269.062 583.697 269.062Z" fill="url(#paint17_linear_41_1533)"/>
</g>
<g opacity="0.5">
<path d="M596.879 226.158L589.739 247.585L625.492 259.511L632.632 238.084L596.879 226.158Z" fill="#3B63F1"/>
</g>
<path d="M593.547 230.905L590.969 253.344L628.411 257.65L630.989 235.211L593.547 230.905Z" fill="#F8C655"/>
<path opacity="0.5" d="M595.25 233.115L593.111 251.733L626.734 255.6L628.873 236.982L595.25 233.115Z" fill="white"/>
<path d="M586.688 238.055V266.713C586.688 267.705 587.488 268.488 588.462 268.488H632.392C633.366 268.488 634.166 267.688 634.166 266.713V243.466C634.166 242.475 633.366 241.692 632.392 241.692H607.036C606.566 241.692 606.114 241.5 605.784 241.17L601.418 236.802C601.088 236.471 600.636 236.28 600.166 236.28H588.479C587.488 236.28 586.688 237.08 586.688 238.055Z" fill="url(#paint18_linear_41_1533)"/>
<path d="M629.992 247.051C630.703 247.051 631.279 246.474 631.279 245.763C631.279 245.052 630.703 244.476 629.992 244.476C629.281 244.476 628.705 245.052 628.705 245.763C628.705 246.474 629.281 247.051 629.992 247.051Z" fill="#F8C655"/>
<g opacity="0.5">
<path d="M592.827 268.506L599.923 259.945C601.227 258.379 603.157 257.474 605.192 257.474H616.427C618.462 257.474 620.409 258.379 621.696 259.945L628.792 268.506H592.827Z" fill="#3B63F1"/>
</g>
<path d="M596.81 264.016C595.732 254.985 588.062 247.99 578.74 247.99C575.367 247.99 572.201 248.913 569.506 250.514C565.141 242.77 556.845 237.533 547.315 237.533C533.245 237.533 521.854 248.948 521.854 263.007C521.854 263.164 521.872 263.32 521.872 263.477C512.376 264.103 504.863 271.986 504.863 281.643C504.863 291.3 513.02 299.861 523.072 299.861H592.253C602.305 299.861 610.462 291.7 610.462 281.643C610.444 273.169 604.653 266.052 596.81 264.016Z" fill="url(#paint19_linear_41_1533)"/>
<path d="M579.193 315.295H532.932C531.871 315.295 531.002 316.165 531.002 317.227V323.004C531.002 324.065 531.871 324.935 532.932 324.935H579.193C580.253 324.935 581.123 324.065 581.123 323.004V317.227C581.123 316.165 580.253 315.295 579.193 315.295ZM574.375 323.004C572.775 323.004 571.488 321.716 571.488 320.115C571.488 318.514 572.775 317.227 574.375 317.227C575.975 317.227 577.262 318.514 577.262 320.115C577.262 321.716 575.975 323.004 574.375 323.004Z" fill="white"/>
<path d="M579.193 303.724H532.932C531.871 303.724 531.002 304.594 531.002 305.655V311.432C531.002 312.494 531.871 313.364 532.932 313.364H579.193C580.253 313.364 581.123 312.494 581.123 311.432V305.655C581.123 304.594 580.253 303.724 579.193 303.724ZM574.375 311.432C572.775 311.432 571.488 310.145 571.488 308.544C571.488 306.943 572.775 305.655 574.375 305.655C575.975 305.655 577.262 306.943 577.262 308.544C577.262 310.145 575.975 311.432 574.375 311.432Z" fill="white"/>
<path d="M532.932 290.221H579.193C579.853 290.221 580.479 290.413 581.019 290.709L577.262 280.581C575.906 277.623 574.671 274.805 571.488 274.805H540.654C537.454 274.805 536.08 277.554 534.88 280.581L531.124 290.709C531.663 290.413 532.271 290.221 532.932 290.221Z" fill="white"/>
<path d="M579.193 292.153H532.932C531.871 292.153 531.002 293.023 531.002 294.084V299.861C531.002 300.923 531.871 301.793 532.932 301.793H579.193C580.253 301.793 581.123 300.923 581.123 299.861V294.084C581.123 293.023 580.253 292.153 579.193 292.153ZM574.375 299.861C572.775 299.861 571.488 298.573 571.488 296.973C571.488 295.372 572.775 294.084 574.375 294.084C575.975 294.084 577.262 295.372 577.262 296.973C577.262 298.573 575.975 299.861 574.375 299.861Z" fill="white"/>
<path d="M58.3992 323.891C60.0609 323.891 61.4079 322.543 61.4079 320.881C61.4079 319.218 60.0609 317.87 58.3992 317.87C56.7376 317.87 55.3906 319.218 55.3906 320.881C55.3906 322.543 56.7376 323.891 58.3992 323.891Z" fill="#86A0FF"/>
<path d="M69.0774 323.891C70.739 323.891 72.086 322.543 72.086 320.881C72.086 319.218 70.739 317.87 69.0774 317.87C67.4158 317.87 66.0687 319.218 66.0687 320.881C66.0687 322.543 67.4158 323.891 69.0774 323.891Z" fill="#86A0FF"/>
<path d="M79.7555 323.891C81.4171 323.891 82.7641 322.543 82.7641 320.881C82.7641 319.218 81.4171 317.87 79.7555 317.87C78.0939 317.87 76.7468 319.218 76.7468 320.881C76.7468 322.543 78.0939 323.891 79.7555 323.891Z" fill="#86A0FF"/>
<path d="M90.4163 323.891C92.0779 323.891 93.4249 322.543 93.4249 320.881C93.4249 319.218 92.0779 317.87 90.4163 317.87C88.7546 317.87 87.4076 319.218 87.4076 320.881C87.4076 322.543 88.7546 323.891 90.4163 323.891Z" fill="#86A0FF"/>
<path d="M101.094 323.891C102.756 323.891 104.103 322.543 104.103 320.881C104.103 319.218 102.756 317.87 101.094 317.87C99.4327 317.87 98.0857 319.218 98.0857 320.881C98.0857 322.543 99.4327 323.891 101.094 323.891Z" fill="#86A0FF"/>
<path d="M111.772 323.891C113.434 323.891 114.781 322.543 114.781 320.881C114.781 319.218 113.434 317.87 111.772 317.87C110.111 317.87 108.764 319.218 108.764 320.881C108.764 322.543 110.111 323.891 111.772 323.891Z" fill="#86A0FF"/>
<path d="M122.433 323.891C124.095 323.891 125.442 322.543 125.442 320.881C125.442 319.218 124.095 317.87 122.433 317.87C120.772 317.87 119.425 319.218 119.425 320.881C119.425 322.543 120.772 323.891 122.433 323.891Z" fill="#86A0FF"/>
<path d="M661.626 152.515C663.288 152.515 664.635 151.167 664.635 149.504C664.635 147.842 663.288 146.494 661.626 146.494C659.965 146.494 658.618 147.842 658.618 149.504C658.618 151.167 659.965 152.515 661.626 152.515Z" fill="#86A0FF"/>
<path d="M661.626 163.198C663.288 163.198 664.635 161.851 664.635 160.188C664.635 158.526 663.288 157.178 661.626 157.178C659.965 157.178 658.618 158.526 658.618 160.188C658.618 161.851 659.965 163.198 661.626 163.198Z" fill="#86A0FF"/>
<path d="M661.626 173.882C663.288 173.882 664.635 172.534 664.635 170.872C664.635 169.209 663.288 167.862 661.626 167.862C659.965 167.862 658.618 169.209 658.618 170.872C658.618 172.534 659.965 173.882 661.626 173.882Z" fill="#86A0FF"/>
<path d="M661.626 184.549C663.288 184.549 664.635 183.201 664.635 181.538C664.635 179.876 663.288 178.528 661.626 178.528C659.965 178.528 658.618 179.876 658.618 181.538C658.618 183.201 659.965 184.549 661.626 184.549Z" fill="#86A0FF"/>
<path d="M661.626 195.233C663.288 195.233 664.635 193.885 664.635 192.222C664.635 190.56 663.288 189.212 661.626 189.212C659.965 189.212 658.618 190.56 658.618 192.222C658.618 193.885 659.965 195.233 661.626 195.233Z" fill="#86A0FF"/>
<path d="M661.626 205.916C663.288 205.916 664.635 204.569 664.635 202.906C664.635 201.244 663.288 199.896 661.626 199.896C659.965 199.896 658.618 201.244 658.618 202.906C658.618 204.569 659.965 205.916 661.626 205.916Z" fill="#86A0FF"/>
<path d="M661.626 216.6C663.288 216.6 664.635 215.253 664.635 213.59C664.635 211.927 663.288 210.58 661.626 210.58C659.965 210.58 658.618 211.927 658.618 213.59C658.618 215.253 659.965 216.6 661.626 216.6Z" fill="#86A0FF"/>
<path d="M182.502 129.442C184.164 129.442 185.511 128.094 185.511 126.431C185.511 124.769 184.164 123.421 182.502 123.421C180.84 123.421 179.493 124.769 179.493 126.431C179.493 128.094 180.84 129.442 182.502 129.442Z" fill="#86A0FF"/>
<path d="M182.502 140.125C184.164 140.125 185.511 138.778 185.511 137.115C185.511 135.453 184.164 134.105 182.502 134.105C180.84 134.105 179.493 135.453 179.493 137.115C179.493 138.778 180.84 140.125 182.502 140.125Z" fill="#86A0FF"/>
<path d="M182.502 150.792C184.164 150.792 185.511 149.444 185.511 147.782C185.511 146.119 184.164 144.771 182.502 144.771C180.84 144.771 179.493 146.119 179.493 147.782C179.493 149.444 180.84 150.792 182.502 150.792Z" fill="#86A0FF"/>
<path d="M182.502 161.476C184.164 161.476 185.511 160.128 185.511 158.465C185.511 156.803 184.164 155.455 182.502 155.455C180.84 155.455 179.493 156.803 179.493 158.465C179.493 160.128 180.84 161.476 182.502 161.476Z" fill="#86A0FF"/>
<path d="M182.502 172.16C184.164 172.16 185.511 170.812 185.511 169.149C185.511 167.487 184.164 166.139 182.502 166.139C180.84 166.139 179.493 167.487 179.493 169.149C179.493 170.812 180.84 172.16 182.502 172.16Z" fill="#86A0FF"/>
<path d="M182.502 182.826C184.164 182.826 185.511 181.478 185.511 179.816C185.511 178.153 184.164 176.805 182.502 176.805C180.84 176.805 179.493 178.153 179.493 179.816C179.493 181.478 180.84 182.826 182.502 182.826Z" fill="#86A0FF"/>
<path d="M182.502 193.51C184.164 193.51 185.511 192.162 185.511 190.5C185.511 188.837 184.164 187.489 182.502 187.489C180.84 187.489 179.493 188.837 179.493 190.5C179.493 192.162 180.84 193.51 182.502 193.51Z" fill="#86A0FF"/>
<path d="M247.927 410.336H219.528V408.562C219.528 408.562 220.328 406.787 221.302 406.787H246.153C247.127 406.787 247.927 407.587 247.927 408.562V410.336Z" fill="white"/>
<path d="M251.475 365.948H215.98C213.041 365.948 210.658 368.332 210.658 371.272V396.138C210.658 399.078 213.041 401.462 215.98 401.462H228.397V403.237C228.397 404.211 229.197 405.012 230.171 405.012H237.267C238.24 405.012 239.04 404.09 239.04 403.237V401.462H251.458C254.397 401.462 256.779 399.078 256.779 396.138V371.272C256.797 368.332 254.414 365.948 251.475 365.948Z" fill="white"/>
<g opacity="0.5">
<path d="M215.98 369.498H251.475C252.449 369.498 253.249 370.298 253.249 371.273V392.588C253.249 393.562 252.449 394.363 251.475 394.363H215.98C215.006 394.363 214.206 393.562 214.206 392.588V371.273C214.206 370.298 215.006 369.498 215.98 369.498Z" fill="#3B63F1"/>
</g>
<path d="M251.475 399.757C250.466 399.757 249.632 398.939 249.632 397.913C249.632 396.886 250.449 396.068 251.475 396.068C252.501 396.068 253.318 396.886 253.318 397.913C253.318 398.939 252.484 399.757 251.475 399.757Z" fill="#F8C655"/>
<path d="M230.641 365.948H229.771V355.334C229.771 353.907 228.606 352.741 227.162 352.741H191.424V351.871H227.162C229.075 351.871 230.623 353.42 230.623 355.334L230.641 365.948Z" fill="white"/>
<path d="M209.093 354.638C210.38 354.638 211.423 353.594 211.423 352.306C211.423 351.018 210.38 349.974 209.093 349.974C207.806 349.974 206.763 351.018 206.763 352.306C206.763 353.594 207.806 354.638 209.093 354.638Z" fill="white"/>
<path d="M139.476 276.806H165.024V293.092C165.024 295.285 163.25 297.077 161.041 297.077H143.442C141.25 297.077 139.459 295.302 139.459 293.092L139.476 276.806Z" fill="white"/>
<path d="M162.694 273.83H159.059V270.019C159.059 266.261 155.998 263.198 152.242 263.198C148.485 263.198 145.424 266.261 145.424 270.019V273.83H141.789V270.019C141.789 264.242 146.485 259.562 152.242 259.562C157.998 259.562 162.694 264.26 162.694 270.019V273.83Z" fill="white"/>
<path d="M154.955 284.27C154.955 282.774 153.737 281.556 152.242 281.556C150.746 281.556 149.529 282.774 149.529 284.27C149.529 285.454 150.276 286.445 151.32 286.828V291.074C151.32 291.579 151.737 291.996 152.242 291.996C152.746 291.996 153.163 291.579 153.163 291.074V286.828C154.207 286.445 154.955 285.436 154.955 284.27Z" fill="#F8C655"/>
</g>
<defs>
<linearGradient id="paint0_linear_41_1533" x1="341.503" y1="448.092" x2="341.503" y2="104.105" gradientUnits="userSpaceOnUse">
<stop stop-color="#4E67E0"/>
<stop offset="0.04" stop-color="#526BE1"/>
<stop offset="1" stop-color="#BCD1FF"/>
</linearGradient>
<linearGradient id="paint1_linear_41_1533" x1="196.239" y1="226.635" x2="486.984" y2="226.635" gradientUnits="userSpaceOnUse">
<stop stop-color="#4E67E0"/>
<stop offset="0.04" stop-color="#526BE1"/>
<stop offset="1" stop-color="#BCD1FF"/>
</linearGradient>
<linearGradient id="paint2_linear_41_1533" x1="387.973" y1="99.4677" x2="384.149" y2="121.005" gradientUnits="userSpaceOnUse">
<stop stop-color="#2C3AFF"/>
<stop offset="0.33" stop-color="#2839F4"/>
<stop offset="0.89" stop-color="#1F39D9"/>
<stop offset="1" stop-color="#1E39D3"/>
</linearGradient>
<linearGradient id="paint3_linear_41_1533" x1="445.098" y1="149.941" x2="434.329" y2="161.398" gradientUnits="userSpaceOnUse">
<stop stop-color="#2C3AFF"/>
<stop offset="0.33" stop-color="#2839F4"/>
<stop offset="0.89" stop-color="#1F39D9"/>
<stop offset="1" stop-color="#1E39D3"/>
</linearGradient>
<linearGradient id="paint4_linear_41_1533" x1="341.502" y1="115.794" x2="254.353" y2="115.794" gradientUnits="userSpaceOnUse">
<stop stop-color="#1E39D3"/>
<stop offset="0.06" stop-color="#2B45D6"/>
<stop offset="0.39" stop-color="#6881E7"/>
<stop offset="0.66" stop-color="#95ACF4"/>
<stop offset="0.88" stop-color="#B1C7FC"/>
<stop offset="1" stop-color="#BCD1FF"/>
</linearGradient>
<linearGradient id="paint5_linear_41_1533" x1="254.353" y1="151.105" x2="223.644" y2="151.105" gradientUnits="userSpaceOnUse">
<stop stop-color="#1E39D3"/>
<stop offset="0.06" stop-color="#2B45D6"/>
<stop offset="0.39" stop-color="#6881E7"/>
<stop offset="0.66" stop-color="#95ACF4"/>
<stop offset="0.88" stop-color="#B1C7FC"/>
<stop offset="1" stop-color="#BCD1FF"/>
</linearGradient>
<linearGradient id="paint6_linear_41_1533" x1="281.861" y1="368.152" x2="281.861" y2="113.202" gradientUnits="userSpaceOnUse">
<stop stop-color="#1E39D3"/>
<stop offset="0.06" stop-color="#2B45D6"/>
<stop offset="0.39" stop-color="#6881E7"/>
<stop offset="0.66" stop-color="#95ACF4"/>
<stop offset="0.88" stop-color="#B1C7FC"/>
<stop offset="1" stop-color="#BCD1FF"/>
</linearGradient>
<linearGradient id="paint7_linear_41_1533" x1="392.003" y1="121.249" x2="404.625" y2="345.185" gradientUnits="userSpaceOnUse">
<stop stop-color="#2C3AFF"/>
<stop offset="0.33" stop-color="#2839F4"/>
<stop offset="0.89" stop-color="#1F39D9"/>
<stop offset="1" stop-color="#1E39D3"/>
</linearGradient>
<linearGradient id="paint8_linear_41_1533" x1="351.111" y1="237.571" x2="351.111" y2="223.376" gradientUnits="userSpaceOnUse">
<stop stop-color="#BCD1FF"/>
<stop offset="0.12" stop-color="#B1C7FC"/>
<stop offset="0.34" stop-color="#95ACF4"/>
<stop offset="0.61" stop-color="#6881E7"/>
<stop offset="0.94" stop-color="#2B45D6"/>
<stop offset="1" stop-color="#1E39D3"/>
</linearGradient>
<linearGradient id="paint9_linear_41_1533" x1="331.895" y1="237.571" x2="331.895" y2="223.376" gradientUnits="userSpaceOnUse">
<stop stop-color="#BCD1FF"/>
<stop offset="0.12" stop-color="#B1C7FC"/>
<stop offset="0.34" stop-color="#95ACF4"/>
<stop offset="0.61" stop-color="#6881E7"/>
<stop offset="0.94" stop-color="#2B45D6"/>
<stop offset="1" stop-color="#1E39D3"/>
</linearGradient>
<linearGradient id="paint10_linear_41_1533" x1="333.957" y1="273.75" x2="362.682" y2="273.75" gradientUnits="userSpaceOnUse">
<stop stop-color="#BCD1FF"/>
<stop offset="0.12" stop-color="#B1C7FC"/>
<stop offset="0.34" stop-color="#95ACF4"/>
<stop offset="0.61" stop-color="#6881E7"/>
<stop offset="0.94" stop-color="#2B45D6"/>
<stop offset="1" stop-color="#1E39D3"/>
</linearGradient>
<linearGradient id="paint11_linear_41_1533" x1="260.535" y1="200.463" x2="260.535" y2="331.932" gradientUnits="userSpaceOnUse">
<stop offset="0.53" stop-color="#BCD1FF"/>
<stop offset="0.59" stop-color="#B4C9FC"/>
<stop offset="0.68" stop-color="#A1B4F6"/>
<stop offset="0.79" stop-color="#8192EC"/>
<stop offset="0.91" stop-color="#5663DF"/>
<stop offset="1" stop-color="#3540D5"/>
</linearGradient>
<linearGradient id="paint12_linear_41_1533" x1="384.149" y1="129.584" x2="384.149" y2="353.507" gradientUnits="userSpaceOnUse">
<stop stop-color="#3B38FF"/>
<stop offset="0.02" stop-color="#4140FF"/>
<stop offset="0.2" stop-color="#757DFF"/>
<stop offset="0.34" stop-color="#9BAAFF"/>
<stop offset="0.46" stop-color="#B3C6FF"/>
<stop offset="0.53" stop-color="#BCD1FF"/>
<stop offset="1" stop-color="#3B38FF"/>
</linearGradient>
<linearGradient id="paint13_linear_41_1533" x1="298.856" y1="123.891" x2="298.856" y2="353.19" gradientUnits="userSpaceOnUse">
<stop offset="0.53" stop-color="#BCD1FF"/>
<stop offset="0.59" stop-color="#B4C9FC"/>
<stop offset="0.68" stop-color="#A1B4F6"/>
<stop offset="0.79" stop-color="#8192EC"/>
<stop offset="0.91" stop-color="#5663DF"/>
<stop offset="1" stop-color="#3540D5"/>
</linearGradient>
<linearGradient id="paint14_linear_41_1533" x1="422.471" y1="141.062" x2="422.471" y2="241.385" gradientUnits="userSpaceOnUse">
<stop stop-color="#3B38FF"/>
<stop offset="0.04" stop-color="#4140FF"/>
<stop offset="0.37" stop-color="#757DFF"/>
<stop offset="0.66" stop-color="#9BAAFF"/>
<stop offset="0.87" stop-color="#B3C6FF"/>
<stop offset="1" stop-color="#BCD1FF"/>
</linearGradient>
<linearGradient id="paint15_linear_41_1533" x1="52.095" y1="362.724" x2="191.439" y2="362.724" gradientUnits="userSpaceOnUse">
<stop stop-color="#2C3AFF"/>
<stop offset="0.33" stop-color="#2839F4"/>
<stop offset="0.89" stop-color="#1F39D9"/>
<stop offset="1" stop-color="#1E39D3"/>
</linearGradient>
<linearGradient id="paint16_linear_41_1533" x1="83.6965" y1="158.7" x2="126.185" y2="205.099" gradientUnits="userSpaceOnUse">
<stop offset="0.53" stop-color="#BCD1FF"/>
<stop offset="0.59" stop-color="#B4C9FC"/>
<stop offset="0.68" stop-color="#A1B4F6"/>
<stop offset="0.79" stop-color="#8192EC"/>
<stop offset="0.91" stop-color="#5663DF"/>
<stop offset="1" stop-color="#3540D5"/>
</linearGradient>
<linearGradient id="paint17_linear_41_1533" x1="541.602" y1="209.771" x2="635.078" y2="289.598" gradientUnits="userSpaceOnUse">
<stop stop-color="#BCD1FF"/>
<stop offset="0.12" stop-color="#B1C7FC"/>
<stop offset="0.34" stop-color="#95ACF4"/>
<stop offset="0.61" stop-color="#6881E7"/>
<stop offset="0.94" stop-color="#2B45D6"/>
<stop offset="1" stop-color="#1E39D3"/>
</linearGradient>
<linearGradient id="paint18_linear_41_1533" x1="591.406" y1="239.574" x2="620.833" y2="263.553" gradientUnits="userSpaceOnUse">
<stop stop-color="#2C3AFF"/>
<stop offset="0.33" stop-color="#2839F4"/>
<stop offset="0.89" stop-color="#1F39D9"/>
<stop offset="1" stop-color="#1E39D3"/>
</linearGradient>
<linearGradient id="paint19_linear_41_1533" x1="557.646" y1="297.728" x2="557.646" y2="259.737" gradientUnits="userSpaceOnUse">
<stop stop-color="#1E39D3"/>
<stop offset="0.06" stop-color="#2B45D6"/>
<stop offset="0.39" stop-color="#6881E7"/>
<stop offset="0.66" stop-color="#95ACF4"/>
<stop offset="0.88" stop-color="#B1C7FC"/>
<stop offset="1" stop-color="#BCD1FF"/>
</linearGradient>
<clipPath id="clip0_41_1533">
<rect width="683" height="449" fill="white"/>
</clipPath>
</defs>
</svg>
