<svg width="674" height="668" viewBox="0 0 674 668" fill="none" xmlns="http://www.w3.org/2000/svg">
<g opacity="0.5">
<path d="M332.58 572.306C294.033 572.306 256.587 564.725 221.26 549.76C187.199 535.337 156.637 514.732 130.429 488.485C104.222 462.255 83.6174 431.651 69.2074 397.577C54.2716 362.22 46.6805 324.725 46.6805 286.161C46.6805 247.597 54.2552 210.103 69.2074 174.746C83.6174 140.655 104.205 110.067 130.429 83.8371C156.653 57.6072 187.199 36.985 221.26 22.5627C256.587 7.58119 294.033 0 332.58 0C371.127 0 408.574 7.58119 443.9 22.5462C477.962 36.9686 508.523 57.5743 534.731 83.8207C560.955 110.067 581.543 140.638 595.953 174.729C610.889 210.086 618.48 247.581 618.48 286.145C618.48 324.708 610.905 362.203 595.953 397.56C581.543 431.651 560.955 462.239 534.731 488.469C508.523 514.715 477.945 535.321 443.9 549.743C408.574 564.708 371.111 572.289 332.58 572.306Z" fill="url(#paint0_linear_41_1271)"/>
</g>
<g opacity="0.5">
<path d="M332.58 572.306C294.033 572.306 256.587 564.725 221.26 549.76C187.199 535.337 156.637 514.732 130.429 488.485C104.222 462.255 83.6174 431.651 69.2074 397.577C54.2716 362.22 46.6805 324.725 46.6805 286.161C46.6805 247.597 54.2552 210.103 69.2074 174.746C83.6174 140.655 104.205 110.067 130.429 83.8371C156.653 57.6072 187.199 36.985 221.26 22.5627C256.587 7.58119 294.033 0 332.58 0C371.127 0 408.574 7.58119 443.9 22.5462C477.962 36.9686 508.523 57.5743 534.731 83.8207C560.955 110.067 581.543 140.638 595.953 174.729C610.889 210.086 618.48 247.581 618.48 286.145C618.48 324.708 610.905 362.203 595.953 397.56C581.543 431.651 560.955 462.239 534.731 488.469C508.523 514.715 477.945 535.321 443.9 549.743C408.574 564.708 371.111 572.289 332.58 572.306Z" fill="url(#paint1_linear_41_1271)"/>
</g>
<g opacity="0.5">
<path d="M332.58 525.487C300.326 525.487 269.008 519.155 239.482 506.657C211.007 494.603 185.44 477.352 163.489 455.398C141.537 433.444 124.317 407.839 112.273 379.323C99.7855 349.771 93.4596 318.427 93.4596 286.145C93.4596 253.863 99.7855 222.519 112.273 192.967C124.317 164.467 141.553 138.862 163.489 116.908C185.424 94.954 210.991 77.7031 239.482 65.6489C269.008 53.1506 300.326 46.8192 332.58 46.8192C364.834 46.8192 396.152 53.1506 425.678 65.6489C454.17 77.7031 479.72 94.954 501.672 116.908C523.623 138.862 540.843 164.451 552.887 192.967C565.375 222.519 571.701 253.863 571.701 286.145C571.701 318.427 565.375 349.771 552.887 379.323C540.843 407.839 523.607 433.411 501.672 455.381C479.736 477.352 454.17 494.586 425.678 506.641C396.152 519.139 364.834 525.487 332.58 525.487Z" fill="url(#paint2_linear_41_1271)"/>
</g>
<g opacity="0.5">
<path d="M332.58 460.545C309.084 460.545 286.245 455.924 264.736 446.813C243.984 438.032 225.351 425.451 209.364 409.467C193.377 393.465 180.823 374.817 172.033 354.047C162.93 332.52 158.313 309.661 158.313 286.145C158.313 262.628 162.93 239.77 172.033 218.243C180.807 197.473 193.36 178.824 209.364 162.823C225.368 146.822 243.984 134.258 264.736 125.46C286.245 116.349 309.084 111.728 332.58 111.728C356.076 111.728 378.916 116.349 400.424 125.46C421.176 134.241 439.809 146.805 455.796 162.823C471.784 178.824 484.337 197.473 493.111 218.243C502.214 239.77 506.831 262.628 506.831 286.145C506.831 309.661 502.214 332.52 493.111 354.047C484.337 374.817 471.767 393.465 455.796 409.467C439.809 425.468 421.176 438.032 400.424 446.813C378.899 455.924 356.076 460.545 332.58 460.545Z" fill="url(#paint3_linear_41_1271)"/>
</g>
<path opacity="0.4" d="M332.58 445.35C311.121 445.35 290.287 441.14 270.652 432.819C251.707 424.793 234.701 413.331 220.11 398.711C205.519 384.108 194.05 367.088 186.048 348.126C177.734 328.474 173.528 307.622 173.528 286.145C173.528 264.667 177.734 243.815 186.048 224.163C194.067 205.202 205.519 188.181 220.11 173.578C234.701 158.975 251.707 147.496 270.652 139.487C290.287 131.166 311.121 126.956 332.58 126.956C354.039 126.956 374.873 131.166 394.509 139.487C413.454 147.513 430.46 158.975 445.05 173.578C459.641 188.181 471.11 205.202 479.128 224.163C487.442 243.815 491.649 264.667 491.649 286.145C491.649 307.622 487.442 328.474 479.128 348.126C471.11 367.088 459.658 384.108 445.05 398.711C430.46 413.315 413.454 424.793 394.509 432.819C374.857 441.14 354.023 445.35 332.58 445.35Z" fill="url(#paint4_linear_41_1271)"/>
<path opacity="0.2" d="M514.126 351.613C515.194 351.613 516.147 352.303 516.459 353.323L517.741 357.352C517.988 358.109 518.579 358.701 519.335 358.947C520.386 359.293 521.405 359.72 522.375 360.213C523.098 360.575 523.936 360.592 524.642 360.213L528.405 358.257C529.358 357.763 530.508 357.944 531.264 358.701L533.712 361.151C534.468 361.907 534.649 363.059 534.156 364.012L532.2 367.778C531.839 368.485 531.839 369.324 532.2 370.048C532.693 371.018 533.104 372.038 533.449 373.074C533.696 373.83 534.287 374.439 535.043 374.669L539.101 375.951C540.12 376.28 540.81 377.218 540.81 378.287V381.757C540.81 382.826 540.12 383.763 539.101 384.092L535.026 385.374C534.271 385.621 533.679 386.213 533.433 386.97C533.088 388.006 532.677 389.009 532.184 389.979C531.822 390.686 531.806 391.525 532.184 392.249L534.156 396.047C534.649 397.001 534.468 398.152 533.712 398.909L531.264 401.359C530.508 402.116 529.358 402.297 528.405 401.803L524.593 399.83C523.886 399.468 523.048 399.468 522.325 399.83C521.372 400.307 520.37 400.734 519.335 401.063C518.579 401.31 517.971 401.902 517.741 402.658L516.443 406.737C516.114 407.756 515.178 408.447 514.11 408.447H510.643C509.575 408.447 508.622 407.756 508.31 406.737L507.012 402.658C506.765 401.902 506.174 401.31 505.418 401.063C504.383 400.718 503.38 400.307 502.427 399.83C501.704 399.468 500.883 399.468 500.16 399.83L496.348 401.803C495.395 402.297 494.245 402.116 493.489 401.359L491.041 398.909C490.285 398.152 490.104 397.001 490.597 396.047L492.569 392.249C492.93 391.541 492.93 390.703 492.569 389.979C492.076 389.009 491.665 388.022 491.32 386.97C491.074 386.213 490.482 385.621 489.726 385.374L485.651 384.092C484.633 383.763 483.943 382.826 483.943 381.757V378.287C483.943 377.218 484.633 376.28 485.651 375.951L489.71 374.669C490.466 374.422 491.057 373.83 491.304 373.074C491.649 372.021 492.076 371.018 492.552 370.048C492.914 369.341 492.914 368.502 492.552 367.778L490.597 364.012C490.104 363.059 490.285 361.907 491.041 361.151L493.489 358.701C494.245 357.944 495.395 357.763 496.348 358.257L500.111 360.213C500.817 360.575 501.655 360.575 502.378 360.213C503.348 359.72 504.366 359.293 505.418 358.947C506.174 358.701 506.782 358.109 507.012 357.352L508.293 353.323C508.622 352.303 509.558 351.613 510.626 351.613H514.126ZM512.401 366.068C504.678 366.068 498.418 372.317 498.418 380.046C498.418 387.775 504.678 394.025 512.401 394.025C520.124 394.025 526.384 387.775 526.384 380.046C526.384 372.317 520.107 366.068 512.401 366.068Z" fill="white"/>
<path d="M537.278 435.433C526.384 446.336 526.384 464.015 537.278 474.918C542.716 480.361 549.864 483.091 556.995 483.091V427.26C549.864 427.26 542.733 429.99 537.278 435.433Z" fill="white"/>
<path d="M576.728 435.433C571.29 429.99 564.142 427.26 557.011 427.26V483.091C564.142 483.091 571.29 480.361 576.728 474.918C587.622 464.015 587.622 446.336 576.728 435.433Z" fill="url(#paint5_linear_41_1271)"/>
<path d="M542.322 455.184C542.322 447.076 548.894 440.515 557.011 440.515V433.18C544.869 433.18 535.027 443.031 535.027 455.184C535.027 467.337 544.869 477.187 557.011 477.187V469.853C548.894 469.853 542.322 463.291 542.322 455.184Z" fill="url(#paint6_linear_41_1271)"/>
<path d="M578.996 455.184C578.996 443.031 569.154 433.18 557.011 433.18V440.515C565.112 440.515 571.701 447.093 571.701 455.184C571.701 463.275 565.128 469.853 557.011 469.853V477.187C569.154 477.187 578.996 467.337 578.996 455.184Z" fill="url(#paint7_linear_41_1271)"/>
<path d="M529.111 455.184C529.111 439.758 541.599 427.26 557.011 427.26V406.901H554.07C552.263 406.901 550.652 408.069 550.11 409.812L547.941 416.67C547.531 417.969 546.512 418.955 545.23 419.383C543.439 419.975 541.714 420.699 540.054 421.537C538.839 422.146 537.409 422.179 536.21 421.537L529.818 418.232C528.208 417.393 526.236 417.706 524.954 418.988L520.797 423.149C519.516 424.432 519.203 426.405 520.041 428.017L523.361 434.414C523.985 435.614 523.968 437.045 523.361 438.262C522.523 439.906 521.816 441.633 521.224 443.409C520.797 444.692 519.811 445.712 518.513 446.123L511.629 448.293C509.904 448.836 508.721 450.448 508.721 452.257V458.144C508.721 459.953 509.904 461.565 511.629 462.107L518.546 464.295C519.844 464.706 520.83 465.725 521.257 467.008C521.849 468.768 522.555 470.478 523.377 472.106C523.985 473.323 524.018 474.754 523.377 475.954L520.025 482.401C519.187 484.012 519.499 485.986 520.781 487.268L524.938 491.429C526.22 492.712 528.191 493.008 529.801 492.185L536.259 488.831C537.458 488.206 538.888 488.222 540.104 488.831C541.73 489.653 543.423 490.36 545.181 490.936C546.463 491.363 547.481 492.35 547.892 493.649L550.094 500.589C550.636 502.316 552.246 503.5 554.054 503.5H556.995V483.141C541.599 483.091 529.111 470.593 529.111 455.184Z" fill="url(#paint8_linear_41_1271)"/>
<path d="M563.912 500.54L566.114 493.6C566.525 492.301 567.543 491.314 568.825 490.886C570.583 490.311 572.276 489.604 573.902 488.781C575.118 488.173 576.548 488.156 577.747 488.781L584.205 492.136C585.815 492.975 587.787 492.662 589.068 491.38L593.225 487.219C594.507 485.936 594.819 483.963 593.981 482.351L590.629 475.905C590.005 474.704 590.021 473.274 590.629 472.057C591.451 470.429 592.174 468.718 592.749 466.959C593.176 465.676 594.162 464.656 595.46 464.245L602.377 462.058C604.103 461.515 605.286 459.904 605.286 458.095V452.24C605.286 450.431 604.103 448.82 602.377 448.277L595.493 446.106C594.195 445.695 593.209 444.676 592.782 443.393C592.19 441.617 591.483 439.906 590.645 438.245C590.038 437.029 590.021 435.614 590.645 434.397L593.965 428C594.803 426.389 594.49 424.415 593.209 423.132L589.052 418.972C587.77 417.689 585.798 417.393 584.188 418.215L577.796 421.521C576.597 422.146 575.168 422.129 573.952 421.521C572.292 420.682 570.567 419.959 568.776 419.367C567.494 418.939 566.476 417.952 566.065 416.653L563.912 409.812C563.37 408.085 561.76 406.901 559.952 406.901H557.011V427.26C572.424 427.26 584.911 439.758 584.911 455.184C584.911 470.609 572.424 483.108 557.011 483.108V503.467H559.952C561.76 503.45 563.37 502.266 563.912 500.54Z" fill="url(#paint9_linear_41_1271)"/>
<path d="M553.364 451.533C551.343 453.556 551.343 456.812 553.364 458.835C554.366 459.838 555.697 460.348 557.011 460.348V450.02C555.68 450.02 554.366 450.514 553.364 451.533Z" fill="#F8C655"/>
<path d="M560.659 451.533C559.657 450.53 558.326 450.02 557.011 450.02V460.348C558.326 460.348 559.657 459.838 560.659 458.835C562.663 456.812 562.663 453.539 560.659 451.533Z" fill="#F9B938"/>
<g opacity="0.5">
<path d="M501.606 228.866H594.885C597.941 228.866 600.406 231.35 600.406 234.392V302.179C600.406 305.238 597.924 307.704 594.885 307.704H501.606C498.55 307.704 496.085 305.221 496.085 302.179V234.392C496.069 231.35 498.55 228.866 501.606 228.866Z" fill="#86A0FF"/>
<path d="M594.885 229.294C597.711 229.294 599.995 231.58 599.995 234.408V302.195C599.995 305.024 597.711 307.31 594.885 307.31H501.606C498.78 307.31 496.496 305.024 496.496 302.195V234.408C496.496 231.58 498.78 229.294 501.606 229.294H594.885ZM594.885 228.455H501.606C498.32 228.455 495.658 231.119 495.658 234.408V302.195C495.658 305.484 498.32 308.148 501.606 308.148H594.885C598.171 308.148 600.833 305.484 600.833 302.195V234.408C600.833 231.119 598.154 228.455 594.885 228.455Z" fill="white"/>
</g>
<path d="M545.46 262.234H505.352V266.476H545.46V262.234Z" fill="#DBE2FF"/>
<path d="M556.683 262.234H549.913V266.476H556.683V262.234Z" fill="#DBE2FF"/>
<path d="M585.683 262.234H561.333V266.476H585.683V262.234Z" fill="#DBE2FF"/>
<path d="M545.46 270.736H505.352V274.979H545.46V270.736Z" fill="#DBE2FF"/>
<path d="M591.122 270.736H552.591V274.979H591.122V270.736Z" fill="#DBE2FF"/>
<path d="M538.362 253.879H505.352V258.122H538.362V253.879Z" fill="#DBE2FF"/>
<path d="M585.683 253.879H544.458V258.122H585.683V253.879Z" fill="#DBE2FF"/>
<path d="M512.401 240.345H505.352V247.4H512.401V240.345Z" fill="#F8C655"/>
<path d="M525.382 240.345H518.333V247.4H525.382V240.345Z" fill="#F8C655"/>
<path opacity="0.1" d="M616.557 323.919L616.524 323.936L612.302 322.012C601.506 317.111 592.157 311.059 584.5 304.004C577.796 297.821 572.308 290.815 568.184 283.168C560.725 269.321 559.164 256.132 559.18 247.499L559.147 244.193C559.114 232.287 559.788 227.469 559.854 226.959L560.84 220.414L567.116 218.654C567.346 218.588 568.858 218.046 570.205 216.993C571.75 215.776 571.881 214.839 571.881 213.984V206.978L578.404 204.445L616.541 189.596L616.59 189.612L616.639 189.596L661.299 206.978V213.984C661.299 214.839 661.43 215.776 662.975 216.993C664.256 218.013 665.686 218.539 666.014 218.638L672.554 220.282L673.326 226.992C673.425 227.633 674.066 232.501 674.033 244.193L674 247.499C674 256.132 672.455 269.338 664.996 283.185C660.872 290.832 655.384 297.837 648.68 304.021C641.023 311.076 631.674 317.127 620.879 322.028L616.656 323.952L616.557 323.919Z" fill="url(#paint10_linear_41_1271)"/>
<path d="M650.947 214V225.347L616.524 211.944V200.581L650.947 214C650.947 213.984 650.947 213.984 650.947 214Z" fill="url(#paint11_linear_41_1271)"/>
<path d="M663.073 228.488V239.852C663.073 239.852 663.221 240.625 663.369 242.006C663.501 243.305 663.632 245.164 663.632 247.449L663.665 244.16C663.714 232.715 663.073 228.488 663.073 228.488Z" fill="#2F38D6"/>
<path d="M663.073 228.488C663.073 228.488 650.947 225.117 650.947 213.984V225.331C650.947 234.376 658.966 238.306 661.956 239.457C661.989 239.474 662.022 239.49 662.055 239.49C662.071 239.49 662.071 239.506 662.087 239.506C662.12 239.523 662.153 239.539 662.186 239.539C662.219 239.556 662.252 239.572 662.285 239.572C662.301 239.572 662.301 239.572 662.301 239.589C662.367 239.605 662.433 239.638 662.482 239.654H662.498C662.531 239.671 662.548 239.671 662.58 239.687C662.613 239.704 662.63 239.704 662.663 239.72H662.679C662.728 239.737 662.778 239.753 662.81 239.77H662.827C662.843 239.77 662.86 239.786 662.876 239.786C662.893 239.786 662.909 239.802 662.925 239.802H662.942C662.975 239.819 662.991 239.819 663.008 239.819C663.024 239.819 663.024 239.819 663.024 239.819H663.041L663.073 228.488Z" fill="url(#paint12_linear_41_1271)"/>
<path d="M582.085 214V225.347L616.508 211.944V200.581L582.085 214C582.085 213.984 582.085 213.984 582.085 214Z" fill="url(#paint13_linear_41_1271)"/>
<path d="M569.959 228.488V239.852C569.959 239.852 569.811 240.625 569.663 242.006C569.532 243.305 569.4 245.164 569.4 247.449L569.367 244.16C569.318 232.715 569.959 228.488 569.959 228.488Z" fill="#3440D5"/>
<path d="M569.959 228.488C569.959 228.488 582.085 225.117 582.085 213.984V225.331C582.085 234.376 574.067 238.306 571.076 239.457C571.043 239.474 571.01 239.49 570.978 239.49C570.961 239.49 570.961 239.506 570.945 239.506C570.912 239.523 570.879 239.539 570.846 239.539C570.813 239.556 570.78 239.572 570.748 239.572C570.731 239.572 570.731 239.572 570.731 239.589C570.665 239.605 570.6 239.638 570.55 239.654H570.534C570.501 239.671 570.485 239.671 570.452 239.687C570.419 239.704 570.402 239.704 570.37 239.72H570.353C570.304 239.737 570.255 239.753 570.222 239.77H570.205C570.189 239.77 570.172 239.786 570.156 239.786C570.14 239.786 570.123 239.802 570.107 239.802H570.09C570.057 239.819 570.041 239.819 570.025 239.819C570.008 239.819 570.008 239.819 570.008 239.819H569.992L569.959 228.488Z" fill="url(#paint14_linear_41_1271)"/>
<path d="M582.085 225.347C582.085 236.481 569.959 239.852 569.959 239.852C569.959 239.852 569.811 240.625 569.663 242.006C568.677 251.577 567.856 290.601 616.524 312.687V211.928L582.085 225.347Z" fill="url(#paint15_linear_41_1271)"/>
<path d="M663.369 242.023C663.221 240.625 663.073 239.868 663.073 239.868C663.073 239.868 662.646 239.753 661.956 239.49C658.949 238.339 650.947 234.425 650.947 225.364L616.524 211.961V312.72C656.485 294.581 663.073 265.013 663.616 249.719C663.714 246.38 663.55 243.716 663.369 242.023Z" fill="url(#paint16_linear_41_1271)"/>
<path d="M623.212 273.219L620.106 261.806L619.63 260.079C621.766 258.961 623.212 256.724 623.212 254.143C623.212 250.442 620.205 247.433 616.508 247.433C612.811 247.433 609.804 250.442 609.804 254.143C609.804 256.724 611.25 258.961 613.386 260.079L612.909 261.806L610.297 271.476L609.722 273.581C610.1 274.239 610.806 274.699 611.644 274.699H621.388C622.226 274.699 622.932 274.239 623.31 273.581L623.212 273.219Z" fill="#132C7A"/>
<path d="M623.212 254.159C623.212 256.741 621.766 258.977 619.63 260.096L620.106 261.822C627.04 258.106 624.395 247.466 616.508 247.466C620.221 247.449 623.228 250.459 623.212 254.159Z" fill="url(#paint17_linear_41_1271)"/>
<path d="M609.82 254.159C609.82 250.459 612.827 247.449 616.524 247.449C608.637 247.466 606.008 258.106 612.926 261.806L613.402 260.079C611.266 258.977 609.82 256.724 609.82 254.159Z" fill="url(#paint18_linear_41_1271)"/>
<path d="M623.31 273.597C622.932 274.255 622.226 274.715 621.388 274.715H611.644C610.806 274.715 610.1 274.255 609.722 273.597L609.508 274.387C609.114 275.801 610.182 277.199 611.644 277.199H621.388C622.85 277.199 623.918 275.801 623.524 274.387L623.31 273.597Z" fill="url(#paint19_linear_41_1271)"/>
<path d="M581.789 267.512V259.635C584.32 259.027 586.209 256.741 586.209 254.027C586.209 250.854 583.629 248.255 580.442 248.255C577.254 248.255 574.674 250.837 574.674 254.027C574.674 256.741 576.564 259.027 579.094 259.635V268.614L591.681 281.211V296.752C592.535 297.541 593.422 298.314 594.342 299.071V280.109L581.789 267.512ZM577.353 254.027C577.353 252.317 578.733 250.936 580.442 250.936C582.151 250.936 583.531 252.317 583.531 254.027C583.531 255.738 582.151 257.119 580.442 257.119C578.733 257.119 577.353 255.738 577.353 254.027Z" fill="url(#paint20_linear_41_1271)"/>
<path d="M635.256 273.383V281.326C632.725 281.935 630.836 284.221 630.836 286.934C630.836 290.108 633.415 292.706 636.603 292.706C639.791 292.706 642.37 290.124 642.37 286.934C642.37 284.221 640.481 281.935 637.95 281.326V250.854L629.603 242.499V217.042L626.942 216.006V243.618L635.288 251.972V269.617L624.411 280.504V308.757C625.315 308.247 626.219 307.737 627.073 307.227V281.606L635.256 273.383ZM636.587 283.842C638.295 283.842 639.676 285.224 639.676 286.934C639.676 288.644 638.295 290.026 636.587 290.026C634.878 290.026 633.497 288.644 633.497 286.934C633.497 285.224 634.894 283.842 636.587 283.842Z" fill="url(#paint21_linear_41_1271)"/>
<path d="M597.776 272.117V254.472L608.654 243.585V215.02L605.992 216.056V242.483L597.776 250.706V238.553C600.307 237.944 602.196 235.658 602.196 232.945C602.196 229.771 599.617 227.173 596.429 227.173C593.242 227.173 590.662 229.755 590.662 232.945C590.662 235.658 592.551 237.944 595.082 238.553V273.235L603.429 281.589V305.682C604.3 306.224 605.187 306.783 606.091 307.31V280.471L597.776 272.117ZM593.34 232.928C593.34 231.218 594.72 229.837 596.429 229.837C598.138 229.837 599.518 231.218 599.518 232.928C599.518 234.639 598.138 236.02 596.429 236.02C594.72 236.02 593.34 234.639 593.34 232.928Z" fill="url(#paint22_linear_41_1271)"/>
<path d="M651.243 247.877V255.754C648.713 256.363 646.823 258.649 646.823 261.362C646.823 264.536 649.403 267.134 652.59 267.134C655.778 267.134 658.358 264.552 658.358 261.362C658.358 258.649 656.468 256.363 653.938 255.754V246.775L641.352 234.178V221.614L638.69 220.578V235.297L651.243 247.877ZM655.679 261.362C655.679 263.072 654.299 264.454 652.59 264.454C650.881 264.454 649.501 263.072 649.501 261.362C649.501 259.652 650.881 258.27 652.59 258.27C654.299 258.27 655.679 259.652 655.679 261.362Z" fill="url(#paint23_linear_41_1271)"/>
<g opacity="0.5">
<path d="M452.428 65.9449H551.868C554.924 65.9449 557.389 68.4281 557.389 71.4704V120.871C557.389 123.93 554.908 126.397 551.868 126.397H452.428C449.372 126.397 446.907 123.914 446.907 120.871V71.4869C446.891 68.4281 449.372 65.9613 452.428 65.9449Z" fill="#86A0FF"/>
<path d="M551.852 66.3724C554.678 66.3724 556.962 68.6583 556.962 71.4869V120.888C556.962 123.716 554.678 126.002 551.852 126.002H452.411C449.585 126.002 447.301 123.716 447.301 120.888V71.4869C447.301 68.6583 449.585 66.3724 452.411 66.3724H551.852ZM551.852 65.5337H452.411C449.125 65.5337 446.463 68.1978 446.463 71.4869V120.888C446.463 124.177 449.125 126.841 452.411 126.841H551.852C555.138 126.841 557.8 124.177 557.8 120.888V71.4869C557.8 68.1978 555.138 65.5337 551.852 65.5337Z" fill="white"/>
</g>
<path d="M547.563 77.3413H456.7V86.6986H547.563V77.3413Z" fill="#DBE2FF"/>
<path d="M499.19 101.269H456.7V105.758H499.19V101.269Z" fill="#DBE2FF"/>
<path d="M511.087 101.269H503.906V105.758H511.087V101.269Z" fill="#DBE2FF"/>
<path d="M541.812 101.269H516.016V105.758H541.812V101.269Z" fill="#DBE2FF"/>
<path d="M499.19 110.297H456.7V114.787H499.19V110.297Z" fill="#DBE2FF"/>
<path d="M547.58 110.297H506.749V114.787H547.58V110.297Z" fill="#DBE2FF"/>
<path d="M491.681 92.4215H456.7V96.911H491.681V92.4215Z" fill="#DBE2FF"/>
<path d="M541.812 92.4215H498.139V96.911H541.812V92.4215Z" fill="#DBE2FF"/>
<path d="M482.644 85.4487H586.226C589.052 85.4487 591.336 87.7346 591.336 90.5632V146.608C591.336 149.437 589.052 151.722 586.226 151.722H482.644C479.818 151.722 477.534 149.437 477.534 146.608V90.5632C477.534 87.7346 479.818 85.4487 482.644 85.4487Z" fill="#86A0FF"/>
<path d="M591.336 94.6416H477.534V112.139H591.336V94.6416Z" fill="url(#paint24_linear_41_1271)"/>
<path d="M531.379 137.218H487.278V142.003H531.379V137.218Z" fill="#DBE2FF"/>
<path d="M581.592 137.218H539.216V142.003H581.592V137.218Z" fill="#DBE2FF"/>
<path d="M531.379 126.841H487.278V131.627H531.379V126.841Z" fill="#DBE2FF"/>
<path d="M581.592 126.841H539.216V131.627H581.592V126.841Z" fill="#DBE2FF"/>
<path d="M494.327 115.971H487.278V123.026H494.327V115.971Z" fill="#F8C655"/>
<path d="M499.618 107.239V99.8218H503.43C503.906 99.8218 504.301 99.9698 504.58 100.249C504.859 100.529 505.007 100.924 505.007 101.401V105.643C505.007 106.12 504.859 106.515 504.58 106.795C504.301 107.074 503.906 107.222 503.43 107.222L499.618 107.239ZM500.899 106.071H503.019C503.512 106.071 503.758 105.824 503.758 105.331V101.729C503.758 101.236 503.512 100.989 503.019 100.989H500.899V106.071Z" fill="#86A0FF"/>
<path d="M506.831 107.239V106.663L509.049 99.8218H510.643L512.861 106.663V107.239H511.662L511.218 105.643H508.458L508.03 107.239H506.831ZM508.786 104.476H510.906L509.904 100.973H509.805L508.786 104.476Z" fill="#86A0FF"/>
<path d="M515.835 107.239V100.989H513.716V99.8218H519.22V100.611L518.842 100.989H517.1V107.239H515.835Z" fill="#86A0FF"/>
<path d="M520.074 107.239V106.663L522.292 99.8218H523.886L526.104 106.663V107.239H524.905L524.461 105.643H521.701L521.274 107.239H520.074ZM522.03 104.476H524.149L523.147 100.973H523.048L522.03 104.476Z" fill="#86A0FF"/>
<path d="M531.937 107.239V99.8218H535.651C536.127 99.8218 536.522 99.9698 536.801 100.249C537.08 100.529 537.228 100.924 537.228 101.401V103.308C537.228 103.785 537.08 104.18 536.801 104.459C536.522 104.739 536.127 104.903 535.651 104.903H533.219V107.239H531.937ZM533.219 103.736H535.224C535.717 103.736 535.963 103.489 535.963 102.996V101.729C535.963 101.236 535.717 100.989 535.224 100.989H533.219V103.736Z" fill="#86A0FF"/>
<path d="M539.677 107.239V99.8218H543.39C543.866 99.8218 544.261 99.9698 544.54 100.249C544.819 100.529 544.967 100.924 544.967 101.401V102.881C544.967 103.407 544.77 103.801 544.376 104.081C544.179 104.213 543.981 104.278 543.784 104.311L545.115 106.597V107.239H543.949L542.519 104.476H540.925V107.239H539.677ZM540.958 103.308H542.979C543.472 103.308 543.719 103.061 543.719 102.568V101.713C543.719 101.22 543.472 100.973 542.979 100.973H540.958V103.308Z" fill="#86A0FF"/>
<path d="M547.58 107.239V99.8218H548.845V107.239H547.58Z" fill="#86A0FF"/>
<path d="M553.133 107.239L551.014 100.447V99.8053H552.18L553.988 106.005H554.037L555.845 99.8053H557.011V100.447L554.892 107.239H553.133Z" fill="#86A0FF"/>
<path d="M558.112 107.239V106.663L560.33 99.8218H561.924L564.142 106.663V107.239H562.943L562.499 105.643H559.739L559.312 107.239H558.112ZM560.084 104.476H562.203L561.201 100.973H561.102L560.084 104.476Z" fill="#86A0FF"/>
<path d="M565.966 105.643V101.401C565.966 100.924 566.114 100.529 566.393 100.249C566.673 99.9698 567.067 99.8218 567.543 99.8218H570.879V100.628L570.501 100.989H567.954C567.461 100.989 567.215 101.236 567.215 101.729V105.331C567.215 105.824 567.461 106.071 567.954 106.071H570.863V107.239H567.527C567.051 107.239 566.656 107.091 566.377 106.811C566.098 106.531 565.966 106.12 565.966 105.643Z" fill="#86A0FF"/>
<path d="M574.592 107.239V104.805L572.473 100.463V99.8218H573.639L575.2 103.423H575.266L576.827 99.8218H577.994V100.463L575.874 104.805V107.239H574.592Z" fill="#86A0FF"/>
<path d="M332.58 100.825V44.7965C331.693 44.7965 330.855 45.1418 330.066 45.8161C324.43 50.5687 305.88 65.3364 294.263 74.5456C293.688 74.8745 293.162 75.2857 292.702 75.779C292.686 75.779 292.686 75.7955 292.686 75.7955C292.275 76.1244 292.061 76.5848 292.078 77.0618C292.078 77.5387 292.275 77.9991 292.686 78.328C292.702 78.328 292.702 78.3445 292.702 78.3445C293.162 78.8378 293.688 79.2489 294.263 79.5779C303.694 87.0604 317.71 98.2101 325.663 104.69L329.573 101.828C330.46 101.154 331.528 100.825 332.58 100.825Z" fill="white"/>
<path d="M373.214 83.2287C372.606 82.9655 371.883 83.0478 371.357 83.4589C363.865 89.3956 354.006 97.2563 346.579 103.242C346.185 103.555 345.971 104.015 345.971 104.509C345.988 104.986 346.218 105.446 346.629 105.742C353.546 110.922 363.947 118.059 371.472 123.124C371.768 123.322 372.129 123.437 372.491 123.437C372.754 123.437 373.033 123.371 373.28 123.256C373.855 122.976 374.216 122.417 374.216 121.809V84.7087C374.216 84.0674 373.822 83.4918 373.214 83.2287Z" fill="url(#paint25_linear_41_1271)"/>
<path d="M293.688 123.141C301.213 118.076 311.63 110.939 318.532 105.758C318.926 105.462 319.172 105.002 319.189 104.525C319.205 104.048 318.975 103.571 318.581 103.259C311.138 97.2728 301.279 89.412 293.803 83.4753C293.293 83.0642 292.554 82.982 291.946 83.2451C291.338 83.5082 290.944 84.0838 290.944 84.7252V121.825C290.944 122.434 291.305 122.993 291.88 123.272C292.127 123.388 292.406 123.453 292.669 123.453C293.031 123.437 293.392 123.338 293.688 123.141Z" fill="white"/>
<path d="M335.587 101.812L339.497 104.673C347.45 98.2102 361.466 87.0439 370.897 79.5779C371.472 79.2489 371.998 78.8378 372.458 78.3445C372.475 78.3445 372.474 78.328 372.474 78.328C372.885 77.9991 373.099 77.5387 373.082 77.0618C373.082 76.5848 372.885 76.1244 372.474 75.7955C372.458 75.7955 372.458 75.779 372.458 75.779C371.998 75.2857 371.472 74.8745 370.897 74.5456C359.28 65.3364 340.73 50.5687 335.094 45.7996C334.305 45.1254 333.451 44.7965 332.58 44.7965V100.825C333.632 100.825 334.7 101.154 335.587 101.812Z" fill="url(#paint26_linear_41_1271)"/>
<path d="M299.389 35.8668V83.6398C299.849 84.018 300.326 84.3798 300.802 84.7745C311.893 93.6055 325.4 104.377 330.066 108.307C330.855 108.982 331.709 109.327 332.58 109.327C333.451 109.327 334.305 108.982 335.094 108.324C339.76 104.394 353.25 93.6055 364.358 84.7745C364.834 84.3963 365.311 84.018 365.771 83.6398V35.8668H299.389Z" fill="url(#paint27_linear_41_1271)"/>
<path d="M329.557 101.812L325.646 104.673L321.949 107.37C321.851 107.419 321.768 107.469 321.686 107.535C321.259 107.863 320.815 108.192 320.355 108.538L316.182 111.58C308.476 117.138 298.831 123.667 293.063 127.532C292.653 127.811 292.39 128.222 292.34 128.683C292.291 129.143 292.456 129.604 292.801 129.949C294.115 131.281 295.955 132.038 297.878 132.038H332.58V100.792C331.512 100.825 330.46 101.154 329.557 101.812Z" fill="white"/>
<path d="M372.803 128.716C372.754 128.255 372.491 127.828 372.08 127.565C366.296 123.7 356.651 117.155 348.929 111.58L344.854 108.587C344.377 108.225 343.917 107.88 343.474 107.551C343.392 107.485 343.293 107.436 343.211 107.387L339.514 104.69L335.603 101.828C334.7 101.17 333.648 100.841 332.596 100.841V132.087H367.299C369.205 132.087 371.061 131.331 372.376 129.999C372.688 129.637 372.852 129.176 372.803 128.716Z" fill="url(#paint28_linear_41_1271)"/>
<path d="M332.596 49.5491C345.501 49.5491 355.961 39.0793 355.961 26.1642C355.961 13.249 345.501 2.77924 332.596 2.77924C319.692 2.77924 309.232 13.249 309.232 26.1642C309.232 39.0793 319.692 49.5491 332.596 49.5491Z" fill="url(#paint29_linear_41_1271)"/>
<path d="M332.58 45.7996C343.415 45.7996 352.199 37.0085 352.199 26.1642C352.199 15.3198 343.415 6.52872 332.58 6.52872C321.745 6.52872 312.961 15.3198 312.961 26.1642C312.961 37.0085 321.745 45.7996 332.58 45.7996Z" fill="url(#paint30_linear_41_1271)"/>
<path d="M336.773 22.2414C338.275 19.9252 337.616 16.829 335.302 15.3259C332.987 13.8228 329.894 14.482 328.392 16.7982C326.89 19.1144 327.549 22.2106 329.863 23.7138C332.177 25.2169 335.271 24.5577 336.773 22.2414Z" fill="white"/>
<path d="M339.678 37.8073H325.465C324.348 37.8073 323.461 36.9028 323.461 35.801V30.5879C323.461 28.3349 325.285 26.4931 327.552 26.4931H337.592C339.843 26.4931 341.683 28.3185 341.683 30.5879V35.801C341.683 36.9028 340.796 37.8073 339.678 37.8073Z" fill="white"/>
<path d="M310.973 57.7223H354.187C355.813 57.7223 357.111 59.0379 357.111 60.6495C357.111 62.2776 355.797 63.5768 354.187 63.5768H310.973C309.347 63.5768 308.049 62.2612 308.049 60.6495C308.049 59.0379 309.347 57.7223 310.973 57.7223Z" fill="white"/>
<g opacity="0.5">
<path d="M322.853 61.6692C323.415 61.6692 323.872 61.2127 323.872 60.6496C323.872 60.0864 323.415 59.63 322.853 59.63C322.29 59.63 321.834 60.0864 321.834 60.6496C321.834 61.2127 322.29 61.6692 322.853 61.6692Z" fill="#86A0FF"/>
</g>
<g opacity="0.5">
<path d="M326.747 61.6692C327.31 61.6692 327.766 61.2127 327.766 60.6496C327.766 60.0864 327.31 59.63 326.747 59.63C326.184 59.63 325.728 60.0864 325.728 60.6496C325.728 61.2127 326.184 61.6692 326.747 61.6692Z" fill="#86A0FF"/>
</g>
<g opacity="0.5">
<path d="M330.625 61.6692C331.187 61.6692 331.643 61.2127 331.643 60.6496C331.643 60.0864 331.187 59.63 330.625 59.63C330.062 59.63 329.606 60.0864 329.606 60.6496C329.606 61.2127 330.062 61.6692 330.625 61.6692Z" fill="#86A0FF"/>
</g>
<g opacity="0.5">
<path d="M334.519 61.6692C335.081 61.6692 335.538 61.2127 335.538 60.6496C335.538 60.0864 335.081 59.63 334.519 59.63C333.956 59.63 333.5 60.0864 333.5 60.6496C333.5 61.2127 333.956 61.6692 334.519 61.6692Z" fill="#86A0FF"/>
</g>
<g opacity="0.5">
<path d="M338.413 61.6692C338.976 61.6692 339.432 61.2127 339.432 60.6496C339.432 60.0864 338.976 59.63 338.413 59.63C337.85 59.63 337.394 60.0864 337.394 60.6496C337.394 61.2127 337.85 61.6692 338.413 61.6692Z" fill="#86A0FF"/>
</g>
<g opacity="0.5">
<path d="M342.291 61.6692C342.853 61.6692 343.309 61.2127 343.309 60.6496C343.309 60.0864 342.853 59.63 342.291 59.63C341.728 59.63 341.272 60.0864 341.272 60.6496C341.272 61.2127 341.728 61.6692 342.291 61.6692Z" fill="#86A0FF"/>
</g>
<path d="M310.973 69.0365H354.187C355.813 69.0365 357.111 70.3522 357.111 71.9638C357.111 73.5918 355.797 74.891 354.187 74.891H310.973C309.347 74.891 308.049 73.5754 308.049 71.9638C308.049 70.3522 309.347 69.0365 310.973 69.0365Z" fill="white"/>
<g opacity="0.5">
<path d="M322.853 72.9998C323.415 72.9998 323.872 72.5433 323.872 71.9802C323.872 71.4171 323.415 70.9606 322.853 70.9606C322.29 70.9606 321.834 71.4171 321.834 71.9802C321.834 72.5433 322.29 72.9998 322.853 72.9998Z" fill="#86A0FF"/>
</g>
<g opacity="0.5">
<path d="M326.747 72.9998C327.31 72.9998 327.766 72.5433 327.766 71.9802C327.766 71.4171 327.31 70.9606 326.747 70.9606C326.184 70.9606 325.728 71.4171 325.728 71.9802C325.728 72.5433 326.184 72.9998 326.747 72.9998Z" fill="#86A0FF"/>
</g>
<g opacity="0.5">
<path d="M330.625 72.9998C331.187 72.9998 331.643 72.5433 331.643 71.9802C331.643 71.4171 331.187 70.9606 330.625 70.9606C330.062 70.9606 329.606 71.4171 329.606 71.9802C329.606 72.5433 330.062 72.9998 330.625 72.9998Z" fill="#86A0FF"/>
</g>
<g opacity="0.5">
<path d="M334.519 72.9998C335.081 72.9998 335.538 72.5433 335.538 71.9802C335.538 71.4171 335.081 70.9606 334.519 70.9606C333.956 70.9606 333.5 71.4171 333.5 71.9802C333.5 72.5433 333.956 72.9998 334.519 72.9998Z" fill="#86A0FF"/>
</g>
<g opacity="0.5">
<path d="M338.413 72.9998C338.976 72.9998 339.432 72.5433 339.432 71.9802C339.432 71.4171 338.976 70.9606 338.413 70.9606C337.85 70.9606 337.394 71.4171 337.394 71.9802C337.394 72.5433 337.85 72.9998 338.413 72.9998Z" fill="#86A0FF"/>
</g>
<g opacity="0.5">
<path d="M342.291 72.9998C342.853 72.9998 343.309 72.5433 343.309 71.9802C343.309 71.4171 342.853 70.9606 342.291 70.9606C341.728 70.9606 341.272 71.4171 341.272 71.9802C341.272 72.5433 341.728 72.9998 342.291 72.9998Z" fill="#86A0FF"/>
</g>
<path d="M326.55 81.321H338.594C339.875 81.321 340.911 82.3571 340.911 83.6398C340.911 84.9225 339.875 85.9586 338.594 85.9586H326.55C325.268 85.9586 324.233 84.9225 324.233 83.6398C324.233 82.3571 325.268 81.321 326.55 81.321Z" fill="#F8C655"/>
<g opacity="0.26">
<path d="M122.789 57.6894H182.664C195.94 57.6894 206.735 68.4774 206.735 81.7815V141.707C206.735 154.995 195.956 165.799 182.664 165.799H122.789C109.513 165.799 98.7175 155.012 98.7175 141.707V81.765C98.7175 68.4774 109.496 57.6894 122.789 57.6894Z" fill="#86A0FF"/>
</g>
<path d="M126.815 68.2965H178.638C188.299 68.2965 196.137 76.1408 196.137 85.8105V137.662C196.137 147.332 188.299 155.176 178.638 155.176H126.815C117.153 155.176 109.315 147.332 109.315 137.662V85.8105C109.315 76.1244 117.153 68.2965 126.815 68.2965Z" fill="url(#paint31_radial_41_1271)"/>
<path d="M125.336 138.468V135.853L131.152 116.99H138.201L144.018 135.853V138.468H138.513L137.741 134.784H131.612L130.84 138.468H125.336ZM132.697 130.031H136.673L134.833 121.908H134.521L132.697 130.031Z" fill="white"/>
<path d="M146.482 138.468V116.99H158.444C159.841 116.99 160.942 117.402 161.78 118.257C162.618 119.095 163.045 120.214 163.045 121.595V127.729C163.045 129.127 162.634 130.229 161.78 131.067C160.942 131.906 159.824 132.334 158.444 132.334H152.003V138.468H146.482ZM152.003 127.269H156.292C157.113 127.269 157.524 126.858 157.524 126.035V123.272C157.524 122.45 157.113 122.039 156.292 122.039H152.003V127.269Z" fill="white"/>
<path d="M166.249 138.468V116.99H178.211C179.607 116.99 180.708 117.402 181.546 118.257C182.384 119.095 182.811 120.214 182.811 121.595V127.729C182.811 129.127 182.384 130.229 181.546 131.067C180.708 131.906 179.591 132.334 178.211 132.334H171.77V138.468H166.249ZM171.77 127.269H176.058C176.88 127.269 177.291 126.858 177.291 126.035V123.272C177.291 122.45 176.88 122.039 176.058 122.039H171.77V127.269Z" fill="white"/>
<g opacity="0.8">
<path d="M160.81 104.509C160.137 104.509 159.479 104.229 158.986 103.703C157.738 102.338 155.963 101.548 154.106 101.548C152.25 101.548 150.475 102.338 149.243 103.703C148.323 104.706 146.778 104.788 145.759 103.867C144.757 102.946 144.675 101.4 145.595 100.381C147.764 97.9799 150.87 96.615 154.106 96.615C157.343 96.615 160.449 97.9963 162.618 100.397C163.538 101.4 163.456 102.963 162.453 103.884C161.993 104.295 161.402 104.509 160.81 104.509Z" fill="white"/>
</g>
<g opacity="0.8">
<path d="M166.265 98.3417C165.641 98.3417 165.017 98.095 164.524 97.6181C161.73 94.8389 158.033 93.3095 154.106 93.3095C150.179 93.3095 146.466 94.8389 143.673 97.6017C142.703 98.5555 141.159 98.5555 140.189 97.5852C139.236 96.615 139.236 95.0527 140.189 94.0989C143.903 90.3987 148.832 88.376 154.09 88.376C159.348 88.376 164.261 90.4152 167.991 94.1153C168.96 95.0691 168.96 96.6314 168.007 97.6017C167.531 98.095 166.906 98.3417 166.265 98.3417Z" fill="white"/>
</g>
<g opacity="0.8">
<path d="M171.72 92.1912C171.113 92.1912 170.488 91.961 170.012 91.5005C165.707 87.3728 160.071 85.1034 154.106 85.1034C148.142 85.1034 142.49 87.3728 138.201 91.4841C137.215 92.4215 135.654 92.3886 134.718 91.4183C133.781 90.4316 133.814 88.8693 134.784 87.932C139.992 82.9326 146.86 80.1699 154.106 80.1699C161.352 80.1699 168.204 82.9326 173.413 87.932C174.399 88.8693 174.432 90.4316 173.479 91.4183C173.019 91.9281 172.378 92.1912 171.72 92.1912Z" fill="white"/>
</g>
<path d="M154.123 111.087C155.765 111.087 157.097 109.754 157.097 108.11C157.097 106.466 155.765 105.134 154.123 105.134C152.48 105.134 151.149 106.466 151.149 108.11C151.149 109.754 152.48 111.087 154.123 111.087Z" fill="#F8C655"/>
<g opacity="0.5">
<path d="M6.11233 255.639H133.025C136.164 255.639 138.711 258.188 138.711 261.329V339.871C138.711 343.012 136.164 345.561 133.025 345.561H6.11233C2.97401 345.561 0.427203 343.012 0.427203 339.871V261.329C0.410772 258.188 2.95758 255.639 6.11233 255.639Z" fill="#86A0FF"/>
<path d="M133.009 256.05C135.917 256.05 138.283 258.418 138.283 261.329V339.871C138.283 342.782 135.917 345.15 133.009 345.15H6.11234C3.20405 345.15 0.837981 342.782 0.837981 339.871V261.329C0.837981 258.418 3.20405 256.05 6.11234 256.05H133.009ZM133.025 255.212H6.11234C2.74398 255.212 0 257.958 0 261.329V339.871C0 343.242 2.74398 345.988 6.11234 345.988H133.025C136.394 345.988 139.138 343.242 139.138 339.871V261.329C139.121 257.958 136.394 255.212 133.025 255.212Z" fill="white"/>
</g>
<path d="M28.8857 313.131H110.236C115.247 313.131 119.306 317.193 119.306 322.209C119.306 327.225 115.247 331.287 110.236 331.287H28.8857C23.8743 331.287 19.8158 327.225 19.8158 322.209C19.8158 317.193 23.8743 313.131 28.8857 313.131Z" fill="white"/>
<g opacity="0.5">
<path d="M39.7927 325.307C41.5265 325.135 42.7928 323.589 42.6211 321.854C42.4495 320.119 40.9048 318.851 39.171 319.023C37.4372 319.195 36.1709 320.741 36.3426 322.476C36.5143 324.212 38.059 325.479 39.7927 325.307Z" fill="#86A0FF"/>
</g>
<g opacity="0.5">
<path d="M51.5112 325.366C53.2535 325.366 54.666 323.953 54.666 322.209C54.666 320.465 53.2535 319.051 51.5112 319.051C49.7689 319.051 48.3564 320.465 48.3564 322.209C48.3564 323.953 49.7689 325.366 51.5112 325.366Z" fill="#86A0FF"/>
</g>
<g opacity="0.5">
<path d="M63.5551 325.366C65.2975 325.366 66.7099 323.953 66.7099 322.209C66.7099 320.465 65.2975 319.051 63.5551 319.051C61.8128 319.051 60.4004 320.465 60.4004 322.209C60.4004 323.953 61.8128 325.366 63.5551 325.366Z" fill="#86A0FF"/>
</g>
<g opacity="0.5">
<path d="M75.5826 325.366C77.325 325.366 78.7374 323.953 78.7374 322.209C78.7374 320.465 77.325 319.051 75.5826 319.051C73.8403 319.051 72.4279 320.465 72.4279 322.209C72.4279 323.953 73.8403 325.366 75.5826 325.366Z" fill="#86A0FF"/>
</g>
<g opacity="0.5">
<path d="M87.6101 325.366C89.3525 325.366 90.7649 323.953 90.7649 322.209C90.7649 320.465 89.3525 319.051 87.6101 319.051C85.8678 319.051 84.4554 320.465 84.4554 322.209C84.4554 323.953 85.8678 325.366 87.6101 325.366Z" fill="#86A0FF"/>
</g>
<g opacity="0.5">
<path d="M99.6376 325.366C101.38 325.366 102.792 323.953 102.792 322.209C102.792 320.465 101.38 319.051 99.6376 319.051C97.8953 319.051 96.4829 320.465 96.4829 322.209C96.4829 323.953 97.8953 325.366 99.6376 325.366Z" fill="#86A0FF"/>
</g>
<path d="M51.4783 243.7H102.102C103.63 243.7 104.879 244.95 104.879 246.479V293.167C104.879 294.696 103.63 295.946 102.102 295.946H51.4783C49.9503 295.946 48.7015 294.696 48.7015 293.167V246.479C48.7015 244.95 49.9338 243.7 51.4783 243.7Z" fill="#132C7A"/>
<path d="M87.6594 295.946H37.0191C35.491 295.946 34.2422 294.696 34.2422 293.167V246.479C34.2422 244.95 35.491 243.7 37.0191 243.7H87.643C89.1711 243.7 90.4198 244.95 90.4198 246.479V293.167C90.4198 294.696 89.1875 295.946 87.6594 295.946Z" fill="#5061FF"/>
<path d="M97.6495 243.7H41.4719V295.946H97.6495V243.7Z" fill="url(#paint32_linear_41_1271)"/>
<path d="M92.5723 237.138H84.5704V228.751C84.5704 220.463 77.8337 213.737 69.5689 213.737C61.3041 213.737 54.5674 220.479 54.5674 228.751V237.138H46.5655V228.751C46.5655 216.056 56.8842 205.712 69.5853 205.712C82.2865 205.712 92.5887 216.039 92.5887 228.751L92.5723 237.138Z" fill="url(#paint33_linear_41_1271)"/>
<path d="M85.1948 255.688L65.1489 275.751L55.6518 266.246L51.5605 270.341L65.1489 283.941L89.2861 259.783L85.1948 255.688Z" fill="white"/>
<path opacity="0.5" d="M89.2861 259.783L65.149 283.941L77.1272 295.913V295.946H102.102C103.63 295.946 104.879 294.696 104.879 293.167V275.39L89.2861 259.783Z" fill="url(#paint34_linear_41_1271)"/>
<path d="M139.45 269.765C147.018 269.765 153.153 263.625 153.153 256.05C153.153 248.476 147.018 242.335 139.45 242.335C131.882 242.335 125.747 248.476 125.747 256.05C125.747 263.625 131.882 269.765 139.45 269.765Z" fill="white"/>
<path d="M137.626 255.113H129.181V257.004H129.706V261.79H131.612V257.004H133.091V260.326H134.981V257.004H137.643C138.086 259.717 140.452 261.79 143.278 261.79C146.433 261.79 148.996 259.224 148.996 256.067C148.996 252.909 146.433 250.344 143.278 250.344C140.436 250.327 138.086 252.399 137.626 255.113ZM147.107 256.05C147.107 258.172 145.398 259.882 143.278 259.882C141.159 259.882 139.45 258.172 139.45 256.05C139.45 253.929 141.159 252.219 143.278 252.219C145.398 252.219 147.107 253.945 147.107 256.05Z" fill="#F8C655"/>
<path d="M93.969 497.02C93.969 497.02 98.6847 533.035 96.9101 559.364L93.969 630.357C93.969 630.357 97.3045 632.512 104.764 630.357L116.2 571.78L131.645 497.02H93.969Z" fill="url(#paint35_linear_41_1271)"/>
<path opacity="0.5" d="M96.0721 521.195L121.852 546.701L131.645 497.02H93.969L96.0721 521.195Z" fill="#132C7A"/>
<path d="M109.332 497.02L126.535 562.702C126.535 562.702 127.225 579.476 129.739 640.175H143.016L148.503 562.505L146.729 497.02H109.332Z" fill="url(#paint36_linear_41_1271)"/>
<path d="M134.8 517.018C134.455 517.018 134.126 516.771 134.044 516.426C133.946 516.014 134.208 515.587 134.619 515.505C141.389 513.926 142.588 508.006 142.638 507.743C142.72 507.315 143.114 507.052 143.541 507.118C143.969 507.183 144.231 507.594 144.166 508.022C144.116 508.318 142.753 515.192 134.981 517.001C134.915 517.001 134.849 517.018 134.8 517.018Z" fill="#5389F8"/>
<path d="M94.7576 630.719L94.4783 634.156C94.4783 634.156 99.7691 635.866 104.419 634.156L104.748 630.357L94.7576 630.719Z" fill="#003399"/>
<path d="M94.5276 633.613C94.5276 633.613 93.3774 636.245 93.9689 639.78C94.5605 643.316 101.034 642.329 103.055 641.408C105.076 640.487 113.653 637.938 115.296 635.916C116.939 633.893 116.611 632.511 112.158 632.314C107.705 632.117 102.086 631.722 102.086 631.722L94.5276 633.613Z" fill="#211751"/>
<path d="M130.791 640.175V643.316C130.791 643.316 134.849 645.799 142.44 642.79V640.175H130.791Z" fill="#003399"/>
<path d="M130.791 642.724C130.791 642.724 128.573 645.733 129.739 650.322C130.922 654.91 135.95 654.12 140.009 652.673C144.067 651.226 152.891 647.115 154.336 645.602C155.782 644.089 155.059 642.444 151.593 642.214C148.126 641.984 140.206 641.54 140.206 641.54L130.791 642.724Z" fill="url(#paint37_linear_41_1271)"/>
<path opacity="0.5" d="M93.969 497.02L94.3469 501.46L143.311 497.02H93.969Z" fill="#132C7A"/>
<path d="M190.419 428.296L165.592 410.535C164.869 410.009 163.866 410.108 163.242 410.749L129.772 445.185C129 445.975 129.115 447.274 130.019 447.915L154.846 465.676C155.569 466.202 156.571 466.103 157.195 465.462L190.665 431.026C191.438 430.237 191.323 428.938 190.419 428.296Z" fill="#132C7A"/>
<path d="M155.914 464.459C155.865 464.459 155.815 464.443 155.766 464.41L130.939 446.649C130.857 446.583 130.84 446.517 130.824 446.468C130.824 446.419 130.824 446.336 130.889 446.271L164.359 411.835C164.425 411.769 164.507 411.752 164.54 411.752C164.589 411.752 164.639 411.769 164.688 411.802L189.515 429.562C189.597 429.628 189.614 429.694 189.63 429.743C189.63 429.793 189.63 429.875 189.565 429.941L156.095 464.377C156.029 464.443 155.947 464.459 155.914 464.459Z" fill="url(#paint38_linear_41_1271)"/>
<path d="M144.264 438.295C144.264 438.295 149.949 439.035 155.191 434.512C160.416 429.99 155.388 432.736 153.811 433.263C152.25 433.789 151.724 429.941 154.534 428.296C157.343 426.652 158.066 426.52 159.118 426.191C160.169 425.862 158.986 425.073 155.191 425.731C151.395 426.389 151.264 428.296 150.935 428.296C150.607 428.296 151.921 425.336 154.139 424.613C156.357 423.889 153.679 422.705 149.884 423.889C146.088 425.073 140.107 432.375 140.107 432.375C140.107 432.375 139.154 438.081 144.264 438.295Z" fill="url(#paint39_linear_41_1271)"/>
<path d="M88.1688 490.08L97.288 428.148C97.288 428.148 97.0908 411.193 111.222 416.308C125.352 421.406 146.154 431.437 147.14 441.091C147.994 449.56 148.405 486.183 148.487 495.08C148.503 496.149 147.633 497.037 146.548 497.037H94.1333C90.4691 497.02 87.6266 493.748 88.1688 490.08Z" fill="url(#paint40_linear_41_1271)"/>
<path d="M148.043 396.837L133.354 402.609L132.812 413.923L123.38 413.035L120.242 420.255L134.718 428.313L134.981 417.985C136.64 417.771 139.138 417.327 142.473 416.423C148.964 414.63 148.06 396.837 148.043 396.837Z" fill="url(#paint41_linear_41_1271)"/>
<path d="M133.584 471.448C133.584 471.448 136.87 488.485 148.388 491.38L148.158 475.296L133.584 471.448Z" fill="#F48C15"/>
<path d="M172.065 450.81C172.065 450.81 172 447.077 175.138 443.343C178.276 439.61 176.255 443.87 176.321 444.264C176.387 444.659 181.743 441.419 182.072 439.018C182.401 436.617 184.29 440.811 183.321 443.426C183.321 443.426 184.438 445.58 183.058 447.619C181.678 449.658 178.572 453.243 176.206 454.23C173.84 455.217 171.885 452.372 172.065 450.81Z" fill="url(#paint42_linear_41_1271)"/>
<path d="M130.659 449.971L133.19 469.606C133.732 473.783 136.558 477.319 140.534 478.75C144.051 480.016 147.978 479.44 150.985 477.22C158.378 471.761 172.016 461.236 176.338 454.954C176.338 454.954 176.075 450.76 172.016 449.971L152.135 461.104L146.778 441.206C146.778 441.206 142.933 434.792 135.112 439.627C135.079 439.61 130.396 442.899 130.659 449.971Z" fill="#F8C655"/>
<path d="M152.217 387.956L131.645 389.568C129.378 389.749 127.242 390.67 125.566 392.199C123.495 394.074 122.296 396.722 122.23 399.517L121.885 411.785C121.869 412.788 122.493 413.709 123.463 414.022L128.458 415.699C129.887 416.176 131.399 416.324 132.878 416.11L135.654 415.732C136.427 415.633 136.985 414.959 136.952 414.186L136.887 412.805C136.87 412.377 136.509 412.048 136.082 412.065C135.786 412.081 135.507 412.081 135.457 412.081C133.748 412.081 133.387 410.667 133.387 408.973C133.387 407.279 134.767 405.882 136.476 405.882C136.722 405.882 136.952 405.734 137.051 405.503C137.511 404.418 138.366 403.497 139.466 402.954L143.459 400.964C147.041 399.188 149.9 396.245 151.592 392.627L153.153 389.272C153.433 388.631 152.923 387.891 152.217 387.956Z" fill="#132C7A"/>
<path d="M333.812 668C413.868 668 478.767 656.816 478.767 643.02C478.767 629.224 413.868 618.04 333.812 618.04C253.756 618.04 188.858 629.224 188.858 643.02C188.858 656.816 253.756 668 333.812 668Z" fill="url(#paint43_radial_41_1271)"/>
<path d="M456.158 202.045V599.539C456.158 611.051 446.841 620.391 435.323 620.391H232.302C220.8 620.391 211.467 611.067 211.467 599.539V202.045C211.467 190.533 220.783 181.192 232.302 181.192H435.34C446.825 181.192 456.158 190.533 456.158 202.045Z" fill="#86A0FF"/>
<path d="M429.079 192.243H387.608V205.218C387.608 209.79 383.894 213.507 379.326 213.507H288.299C283.731 213.507 280.017 209.79 280.017 205.218V192.243H238.545C229.196 192.243 221.605 199.841 221.605 209.198V592.369C221.605 601.726 229.196 609.324 238.545 609.324H429.096C438.445 609.324 446.036 601.726 446.036 592.369V209.198C446.036 199.841 438.445 192.243 429.079 192.243Z" fill="url(#paint44_linear_41_1271)"/>
<path d="M299.406 197.341H344.082C345.429 197.341 346.53 198.443 346.53 199.792V201.485C346.53 202.834 345.429 203.936 344.082 203.936H299.406C298.059 203.936 296.958 202.834 296.958 201.485V199.792C296.941 198.443 298.042 197.341 299.406 197.341Z" fill="#EBF2FF"/>
<path d="M360.184 203.936C362.008 203.936 363.487 202.456 363.487 200.63C363.487 198.805 362.008 197.325 360.184 197.325C358.36 197.325 356.882 198.805 356.882 200.63C356.882 202.456 358.36 203.936 360.184 203.936Z" fill="#EBF2FF"/>
<mask id="mask0_41_1271" style="mask-type:luminance" maskUnits="userSpaceOnUse" x="221" y="192" width="226" height="418">
<path d="M429.079 192.243H387.608V205.218C387.608 209.79 383.894 213.507 379.326 213.507H288.299C283.731 213.507 280.017 209.79 280.017 205.218V192.243H238.545C229.196 192.243 221.605 199.841 221.605 209.198V592.369C221.605 601.726 229.196 609.324 238.545 609.324H429.096C438.445 609.324 446.036 601.726 446.036 592.369V209.198C446.036 199.841 438.445 192.243 429.079 192.243Z" fill="white"/>
</mask>
<g mask="url(#mask0_41_1271)">
<path opacity="0.1" d="M221.605 192.243V432.358L446.036 207.735V192.243H221.605Z" fill="url(#paint45_linear_41_1271)"/>
</g>
<path d="M315.475 471.859H352.133C356.241 471.859 359.576 475.198 359.576 479.309C359.576 483.42 356.241 486.759 352.133 486.759H315.475C311.368 486.759 308.032 483.42 308.032 479.309C308.049 475.198 311.368 471.859 315.475 471.859Z" fill="#F8C655"/>
<path d="M276.6 396.475H391.042C397.269 396.475 402.33 401.54 402.33 407.773C402.33 414.005 397.269 419.071 391.042 419.071H276.6C270.372 419.071 265.312 414.005 265.312 407.773C265.312 401.54 270.356 396.475 276.6 396.475Z" fill="white"/>
<g opacity="0.5">
<path d="M299.652 410.568V404.007H301.065V410.207C301.065 410.749 301.345 411.029 301.887 411.029H303.415C303.957 411.029 304.237 410.749 304.237 410.207V404.007H305.65V410.568C305.65 411.095 305.485 411.522 305.173 411.851C304.861 412.164 304.434 412.328 303.892 412.328H301.443C300.918 412.328 300.49 412.164 300.162 411.851C299.817 411.522 299.652 411.111 299.652 410.568Z" fill="#86A0FF"/>
<path d="M308.131 412.213V410.93H311.581C312.123 410.93 312.403 410.651 312.403 410.108V409.763C312.403 409.286 312.156 409.006 311.647 408.891L309.659 408.414C308.64 408.167 308.131 407.575 308.131 406.622V405.783C308.131 405.257 308.295 404.829 308.607 404.5C308.919 404.188 309.347 404.023 309.889 404.023H313.569V404.895L313.159 405.306H310.349C309.807 405.306 309.527 405.586 309.527 406.128V406.309C309.527 406.786 309.774 407.066 310.283 407.181L312.271 407.658C312.748 407.773 313.126 407.987 313.389 408.283C313.652 408.579 313.799 408.957 313.799 409.417V410.47C313.799 410.996 313.635 411.424 313.323 411.752C313.011 412.081 312.584 412.229 312.041 412.229L308.131 412.213Z" fill="#86A0FF"/>
<path d="M316.445 412.213V404.007H321.588V404.878L321.177 405.29H317.841V407.394H320.47V408.677H317.841V410.897H321.588V412.18L316.445 412.213Z" fill="#86A0FF"/>
<path d="M324.118 412.213V404.007H328.209C328.735 404.007 329.162 404.171 329.491 404.484C329.803 404.796 329.968 405.224 329.968 405.766V407.411C329.968 407.986 329.754 408.431 329.327 408.743C329.113 408.891 328.9 408.973 328.686 409.006L330.148 411.522V412.229H328.867L327.289 409.187H325.531V412.229H324.118V412.213ZM325.515 407.871H327.733C328.275 407.871 328.554 407.592 328.554 407.049V406.112C328.554 405.569 328.275 405.29 327.733 405.29H325.515V407.871Z" fill="#86A0FF"/>
<path d="M332.827 412.213V404.007H334.355L337.575 409.746H337.641L337.526 408.167V404.007H338.922V412.213H337.394L334.174 406.474H334.108L334.223 408.052V412.213H332.827Z" fill="#86A0FF"/>
<path d="M341.256 412.213V411.572L343.72 404.023H345.478L347.927 411.572V412.213H346.596L346.103 410.453H343.063L342.587 412.213H341.256ZM343.408 409.171H345.741L344.624 405.306H344.509L343.408 409.171Z" fill="#86A0FF"/>
<path d="M349.849 412.213V411.506L350.671 404.007H352.248L354.318 409.154H354.384L356.454 404.007H358.032L358.853 411.506V412.213H357.391L356.914 406.358H356.849L354.976 411.045H353.694L351.821 406.358H351.755L351.279 412.213H349.849Z" fill="#86A0FF"/>
<path d="M361.499 412.213V404.007H366.642V404.878L366.231 405.29H362.895V407.394H365.524V408.677H362.895V410.897H366.642V412.18L361.499 412.213Z" fill="#86A0FF"/>
</g>
<path d="M276.6 431.865H391.042C397.269 431.865 402.33 436.93 402.33 443.163C402.33 449.395 397.269 454.46 391.042 454.46H276.6C270.372 454.46 265.312 449.395 265.312 443.163C265.312 436.93 270.356 431.865 276.6 431.865Z" fill="white"/>
<g opacity="0.5">
<path d="M299.603 447.603V439.413H303.694C304.22 439.413 304.647 439.578 304.976 439.89C305.288 440.203 305.452 440.63 305.452 441.173V443.278C305.452 443.804 305.288 444.232 304.976 444.561C304.664 444.89 304.237 445.038 303.694 445.038H301V447.619L299.603 447.603ZM301 443.738H303.218C303.76 443.738 304.039 443.459 304.039 442.916V441.518C304.039 440.976 303.76 440.696 303.218 440.696H301V443.738Z" fill="#86A0FF"/>
<path d="M306.964 447.603V446.961L309.429 439.413H311.187L313.635 446.961V447.603H312.304L311.811 445.843H308.772L308.311 447.603H306.964ZM309.133 444.56H311.466L310.349 440.696H310.234L309.133 444.56Z" fill="#86A0FF"/>
<path d="M315.574 447.603V446.32H319.024C319.567 446.32 319.846 446.04 319.846 445.498V445.152C319.846 444.676 319.6 444.396 319.09 444.281L317.102 443.804C316.083 443.557 315.574 442.965 315.574 442.011V441.173C315.574 440.646 315.738 440.219 316.05 439.89C316.363 439.578 316.79 439.413 317.332 439.413H321.013V440.285L320.602 440.696H317.792C317.25 440.696 316.971 440.975 316.971 441.518V441.699C316.971 442.176 317.217 442.455 317.726 442.571L319.715 443.047C320.191 443.163 320.569 443.376 320.832 443.672C321.095 443.968 321.243 444.347 321.243 444.807V445.86C321.243 446.386 321.078 446.813 320.766 447.142C320.454 447.455 320.027 447.619 319.485 447.619L315.574 447.603Z" fill="#86A0FF"/>
<path d="M323.297 447.603V446.32H326.747C327.289 446.32 327.569 446.04 327.569 445.498V445.152C327.569 444.676 327.322 444.396 326.813 444.281L324.825 443.804C323.806 443.557 323.297 442.965 323.297 442.011V441.173C323.297 440.646 323.461 440.219 323.773 439.89C324.085 439.578 324.512 439.413 325.055 439.413H328.735V440.285L328.324 440.696H325.515C324.972 440.696 324.693 440.975 324.693 441.518V441.699C324.693 442.176 324.94 442.455 325.449 442.571L327.437 443.047C327.914 443.163 328.292 443.376 328.554 443.672C328.817 443.968 328.965 444.347 328.965 444.807V445.86C328.965 446.386 328.801 446.813 328.489 447.142C328.177 447.471 327.749 447.619 327.207 447.619L323.297 447.603Z" fill="#86A0FF"/>
<path d="M332.531 447.603L330.773 440.104V439.397H332.301L333.352 445.547H333.418L335.061 439.397H336.524L338.167 445.547H338.232L339.284 439.397H340.812V440.104L339.054 447.603H337.411L335.833 441.403H335.768L334.19 447.603H332.531Z" fill="#86A0FF"/>
<path d="M342.833 445.975V441.058C342.833 440.531 342.997 440.104 343.309 439.775C343.622 439.446 344.049 439.298 344.591 439.298H347.171C347.697 439.298 348.124 439.462 348.452 439.775C348.765 440.087 348.929 440.515 348.929 441.058V445.975C348.929 446.501 348.765 446.929 348.452 447.257C348.14 447.57 347.713 447.734 347.171 447.734H344.591C344.065 447.734 343.638 447.57 343.309 447.257C342.997 446.929 342.833 446.501 342.833 445.975ZM345.051 446.435H346.694C347.237 446.435 347.516 446.156 347.516 445.613V441.403C347.516 440.86 347.237 440.581 346.694 440.581H345.051C344.509 440.581 344.23 440.86 344.23 441.403V445.613C344.246 446.172 344.509 446.435 345.051 446.435Z" fill="#86A0FF"/>
<path d="M351.788 447.603V439.413H355.879C356.405 439.413 356.832 439.578 357.161 439.89C357.473 440.202 357.637 440.63 357.637 441.173V442.817C357.637 443.393 357.424 443.837 356.997 444.149C356.783 444.297 356.569 444.38 356.356 444.412L357.818 446.929V447.636H356.536L354.959 444.593H353.201V447.636H351.788V447.603ZM353.185 443.278H355.403C355.945 443.278 356.224 442.998 356.224 442.455V441.518C356.224 440.975 355.945 440.696 355.403 440.696H353.185V443.278Z" fill="#86A0FF"/>
<path d="M360.496 447.603V439.413H364.703C365.228 439.413 365.656 439.578 365.984 439.89C366.313 440.202 366.461 440.63 366.461 441.173V445.86C366.461 446.386 366.296 446.813 365.984 447.142C365.672 447.471 365.245 447.619 364.703 447.619L360.496 447.603ZM361.909 446.32H364.243C364.785 446.32 365.064 446.04 365.064 445.498V441.518C365.064 440.975 364.785 440.696 364.243 440.696H361.909V446.32Z" fill="#86A0FF"/>
</g>
<g opacity="0.2">
<path d="M322.015 550.434C320.602 552.457 317.628 555.499 317.595 555.532L319.731 557.621C319.863 557.489 322.902 554.364 324.463 552.144L322.015 550.434ZM338.068 529.236L338.676 526.309C334.223 525.372 330.083 526.161 326.731 528.611C323.642 530.864 321.407 534.433 320.421 538.659C318.778 545.747 314.177 549.678 314.128 549.71L316.034 552.013C316.248 551.832 321.44 547.457 323.313 539.334C324.775 533.068 329.885 527.526 338.068 529.236ZM318.515 535.008C319.961 530.42 322.114 527.51 325.958 524.944L324.299 522.461C319.895 525.405 317.316 528.874 315.673 534.104C314.161 538.89 311.943 542.54 311.926 542.573L314.473 544.136C314.555 543.988 316.872 540.189 318.515 535.008ZM330.625 547.622C327.602 554.989 322.689 559.101 322.623 559.133L324.512 561.452C324.743 561.271 330.066 556.848 333.369 548.757L330.625 547.622ZM348.732 535.633C347.007 529.763 342.258 527.888 342.061 527.806L340.993 530.585C341.141 530.651 344.624 532.081 345.906 536.538C347.138 540.863 346.464 548.921 336.261 562.768L338.66 564.544C347.45 552.605 350.851 542.869 348.732 535.633ZM336.474 540.485L333.533 539.942C333.089 542.376 332.334 544.004 332.301 544.07L334.995 545.369C335.045 545.287 335.948 543.363 336.474 540.485ZM351.607 527.197C344.065 517.511 329.261 520.603 328.637 520.734L329.261 523.661C329.392 523.628 342.866 520.849 349.258 529.039C354.663 535.979 353.825 546.01 346.809 558.87L349.422 560.301C353.415 552.983 355.534 546.356 355.715 540.583C355.863 535.403 354.483 530.897 351.607 527.197ZM337.148 532.607C335.028 532.098 332.958 532.427 331.151 533.561C329.064 534.877 327.552 537.146 326.977 539.827C326.188 543.494 323.888 547.079 323.872 547.112L325.12 547.918L326.369 548.724C326.484 548.559 328.998 544.662 329.902 540.435C330.313 538.544 331.348 536.965 332.744 536.077C333.845 535.387 335.127 535.173 336.458 535.502C340.631 536.505 339.875 541.044 339.777 541.554C339.268 544.119 335.439 555.187 328.867 561.419L330.921 563.59C337.953 556.913 342.077 545.352 342.718 542.129C343.425 538.38 342.011 533.792 337.148 532.607Z" fill="white"/>
</g>
<path opacity="0.5" d="M334.338 362.154C309.527 362.154 289.334 341.943 289.334 317.111C289.334 292.279 309.527 272.068 334.338 272.068C359.149 272.068 379.343 292.279 379.343 317.111C379.343 341.943 359.149 362.154 334.338 362.154ZM334.338 279.304C313.471 279.304 296.563 296.226 296.563 317.111C296.563 337.996 313.471 354.918 334.338 354.918C355.206 354.918 372.113 337.996 372.113 317.111C372.113 296.226 355.206 279.304 334.338 279.304Z" fill="url(#paint46_linear_41_1271)"/>
<path d="M332.58 359.276C307.769 359.276 287.576 339.065 287.576 314.233C287.576 289.401 307.769 269.19 332.58 269.19C357.391 269.19 377.585 289.401 377.585 314.233C377.585 339.065 357.391 359.276 332.58 359.276ZM332.58 276.426C311.713 276.426 294.805 293.348 294.805 314.233C294.805 335.118 311.713 352.04 332.58 352.04C353.447 352.04 370.355 335.118 370.355 314.233C370.355 293.348 353.447 276.426 332.58 276.426Z" fill="url(#paint47_linear_41_1271)"/>
<g opacity="0.5">
<path d="M334.568 313.542C339.886 313.542 344.197 309.228 344.197 303.905C344.197 298.583 339.886 294.269 334.568 294.269C329.251 294.269 324.94 298.583 324.94 303.905C324.94 309.228 329.251 313.542 334.568 313.542Z" fill="url(#paint48_linear_41_1271)"/>
<path d="M350.112 339.082H319.025C317.907 339.082 317.02 338.177 317.02 337.075V321.387C317.02 319.134 318.844 317.292 321.111 317.292H348.042C350.293 317.292 352.133 319.117 352.133 321.387V337.075C352.117 338.177 351.213 339.082 350.112 339.082Z" fill="url(#paint49_linear_41_1271)"/>
</g>
<path d="M332.58 311.108C337.898 311.108 342.209 306.794 342.209 301.472C342.209 296.149 337.898 291.835 332.58 291.835C327.262 291.835 322.952 296.149 322.952 301.472C322.952 306.794 327.262 311.108 332.58 311.108Z" fill="white"/>
<path d="M348.124 336.648H317.036C315.919 336.648 315.032 335.743 315.032 334.641V318.953C315.032 316.7 316.856 314.858 319.123 314.858H346.037C348.288 314.858 350.128 316.7 350.128 318.953V334.641C350.128 335.76 349.225 336.648 348.124 336.648Z" fill="white"/>
<path d="M274.086 592.681V587.616C274.086 587.041 274.266 586.58 274.611 586.235C274.957 585.89 275.417 585.709 275.992 585.709H279.968V586.679L279.524 587.107H276.485C275.893 587.107 275.597 587.403 275.597 587.995V592.303C275.597 592.895 275.893 593.191 276.485 593.191H279.968V594.589H275.992C275.417 594.589 274.957 594.408 274.611 594.063C274.266 593.717 274.086 593.257 274.086 592.681Z" fill="#86A0FF"/>
<path d="M285.653 594.573V591.662L283.123 586.465V585.709H284.519L286.376 590.017H286.458L288.315 585.709H289.712V586.465L287.181 591.662V594.573H285.653Z" fill="#86A0FF"/>
<path d="M293.441 594.573V585.709H297.549C298.124 585.709 298.584 585.89 298.929 586.235C299.274 586.58 299.455 587.041 299.455 587.616V588.258C299.455 588.85 299.258 589.31 298.88 589.623C298.716 589.754 298.535 589.853 298.305 589.902V589.968C298.568 590.034 298.781 590.149 298.962 590.28C299.406 590.609 299.636 591.086 299.636 591.744V592.698C299.636 593.273 299.455 593.734 299.11 594.079C298.765 594.425 298.305 594.606 297.73 594.606L293.441 594.573ZM294.953 589.327H297.04C297.631 589.327 297.927 589.031 297.927 588.439V587.995C297.927 587.403 297.631 587.107 297.04 587.107H294.953V589.327ZM294.953 593.191H297.221C297.812 593.191 298.108 592.895 298.108 592.303V591.613C298.108 591.02 297.812 590.724 297.221 590.724H294.953V593.191Z" fill="#86A0FF"/>
<path d="M303.859 594.573V585.709H309.429V586.663L308.985 587.107H305.387V589.392H308.229V590.79H305.387V593.191H309.429V594.589H303.859V594.573Z" fill="#86A0FF"/>
<path d="M313.422 594.573V585.709H317.841C318.417 585.709 318.877 585.89 319.222 586.235C319.567 586.58 319.747 587.041 319.747 587.616V589.392C319.747 590.017 319.517 590.494 319.057 590.823C318.827 590.971 318.597 591.07 318.367 591.103L319.945 593.833V594.589H318.548L316.839 591.3H314.95V594.589L313.422 594.573ZM314.933 589.902H317.332C317.924 589.902 318.219 589.606 318.219 589.014V587.995C318.219 587.403 317.924 587.107 317.332 587.107H314.933V589.902Z" fill="#86A0FF"/>
<path d="M323.658 594.573V593.175H327.388C327.979 593.175 328.275 592.879 328.275 592.287V591.908C328.275 591.399 327.996 591.086 327.454 590.955L325.301 590.445C324.2 590.182 323.658 589.54 323.658 588.504V587.6C323.658 587.024 323.839 586.564 324.184 586.218C324.529 585.873 324.989 585.692 325.564 585.692H329.54V586.646L329.097 587.09H326.057C325.465 587.09 325.17 587.386 325.17 587.978V588.159C325.17 588.669 325.449 588.981 325.991 589.113L328.144 589.623C328.653 589.754 329.064 589.968 329.343 590.297C329.623 590.626 329.787 591.02 329.787 591.53V592.665C329.787 593.241 329.606 593.701 329.261 594.046C328.916 594.392 328.456 594.573 327.881 594.573H323.658Z" fill="#86A0FF"/>
<path d="M333.895 594.573V585.709H339.465V586.663L339.021 587.107H335.423V589.392H338.265V590.79H335.423V593.191H339.465V594.589H333.895V594.573Z" fill="#86A0FF"/>
<path d="M343.063 592.681V587.616C343.063 587.041 343.244 586.58 343.589 586.235C343.934 585.89 344.394 585.709 344.969 585.709H348.945V586.679L348.502 587.107H345.462C344.87 587.107 344.575 587.403 344.575 587.995V592.303C344.575 592.895 344.87 593.191 345.462 593.191H348.945V594.589H344.969C344.394 594.589 343.934 594.408 343.589 594.063C343.244 593.717 343.063 593.257 343.063 592.681Z" fill="#86A0FF"/>
<path d="M352.807 592.813V585.725H354.318V592.435C354.318 593.027 354.614 593.323 355.206 593.323H356.849C357.44 593.323 357.736 593.027 357.736 592.435V585.725H359.248V592.813C359.248 593.389 359.067 593.849 358.722 594.194C358.377 594.54 357.917 594.721 357.342 594.721H354.68C354.105 594.721 353.645 594.54 353.3 594.194C352.971 593.833 352.807 593.372 352.807 592.813Z" fill="#86A0FF"/>
<path d="M363.684 594.573V585.709H368.104C368.679 585.709 369.139 585.89 369.484 586.235C369.829 586.58 370.01 587.041 370.01 587.616V589.392C370.01 590.017 369.78 590.494 369.32 590.823C369.09 590.971 368.843 591.07 368.63 591.103L370.207 593.833V594.589H368.81L367.102 591.3H365.212V594.589L363.684 594.573ZM365.196 589.902H367.595C368.186 589.902 368.482 589.606 368.482 589.014V587.995C368.482 587.403 368.186 587.107 367.595 587.107H365.196V589.902Z" fill="#86A0FF"/>
<path d="M374.364 594.573V585.709H375.876V594.573H374.364Z" fill="#86A0FF"/>
<path d="M382.087 594.573V587.107H379.556V585.709H386.129V586.663L385.685 587.107H383.598V594.573H382.087Z" fill="#86A0FF"/>
<path d="M391.502 594.573V591.662L388.971 586.465V585.709H390.368L392.225 590.017H392.307L394.163 585.709H395.56V586.465L393.03 591.662V594.573H391.502Z" fill="#86A0FF"/>
<defs>
<linearGradient id="paint0_linear_41_1271" x1="332.58" y1="572.306" x2="332.58" y2="8.22231e-06" gradientUnits="userSpaceOnUse">
<stop stop-color="#4E67E0"/>
<stop offset="0.04" stop-color="#526BE1"/>
<stop offset="1" stop-color="#BCD1FF"/>
</linearGradient>
<linearGradient id="paint1_linear_41_1271" x1="332.58" y1="572.306" x2="332.58" y2="8.22231e-06" gradientUnits="userSpaceOnUse">
<stop stop-color="#4E67E0"/>
<stop offset="0.04" stop-color="#526BE1"/>
<stop offset="1" stop-color="#BCD1FF"/>
</linearGradient>
<linearGradient id="paint2_linear_41_1271" x1="332.58" y1="525.487" x2="332.58" y2="46.8193" gradientUnits="userSpaceOnUse">
<stop stop-color="#4E67E0"/>
<stop offset="0.04" stop-color="#526BE1"/>
<stop offset="1" stop-color="#BCD1FF"/>
</linearGradient>
<linearGradient id="paint3_linear_41_1271" x1="332.572" y1="460.545" x2="332.572" y2="111.728" gradientUnits="userSpaceOnUse">
<stop stop-color="#BCD1FF"/>
<stop offset="0.96" stop-color="#526BE1"/>
<stop offset="1" stop-color="#4E67E0"/>
</linearGradient>
<linearGradient id="paint4_linear_41_1271" x1="332.588" y1="445.35" x2="332.588" y2="126.956" gradientUnits="userSpaceOnUse">
<stop stop-color="#2C3AFF"/>
<stop offset="0.33" stop-color="#2839F4"/>
<stop offset="0.89" stop-color="#1F39D9"/>
<stop offset="1" stop-color="#1E39D3"/>
</linearGradient>
<linearGradient id="paint5_linear_41_1271" x1="557.011" y1="455.176" x2="584.899" y2="455.176" gradientUnits="userSpaceOnUse">
<stop stop-color="white"/>
<stop offset="1" stop-color="#CDDAFE"/>
</linearGradient>
<linearGradient id="paint6_linear_41_1271" x1="578.996" y1="455.184" x2="535.027" y2="455.184" gradientUnits="userSpaceOnUse">
<stop stop-color="#2C3AFF"/>
<stop offset="0.19" stop-color="#3444FF"/>
<stop offset="0.52" stop-color="#4C5FFF"/>
<stop offset="0.95" stop-color="#738CFF"/>
<stop offset="1" stop-color="#7892FF"/>
</linearGradient>
<linearGradient id="paint7_linear_41_1271" x1="557.011" y1="455.184" x2="635.183" y2="455.184" gradientUnits="userSpaceOnUse">
<stop stop-color="#2C3AFF"/>
<stop offset="0.33" stop-color="#2839F4"/>
<stop offset="0.89" stop-color="#1F39D9"/>
<stop offset="1" stop-color="#1E39D3"/>
</linearGradient>
<linearGradient id="paint8_linear_41_1271" x1="508.721" y1="455.2" x2="605.302" y2="455.2" gradientUnits="userSpaceOnUse">
<stop stop-color="#7892FF"/>
<stop offset="0.05" stop-color="#738CFF"/>
<stop offset="0.48" stop-color="#4C5FFF"/>
<stop offset="0.81" stop-color="#3444FF"/>
<stop offset="1" stop-color="#2C3AFF"/>
</linearGradient>
<linearGradient id="paint9_linear_41_1271" x1="557.011" y1="455.184" x2="635.183" y2="455.184" gradientUnits="userSpaceOnUse">
<stop stop-color="#2C3AFF"/>
<stop offset="0.33" stop-color="#2839F4"/>
<stop offset="0.89" stop-color="#1F39D9"/>
<stop offset="1" stop-color="#1E39D3"/>
</linearGradient>
<linearGradient id="paint10_linear_41_1271" x1="559.146" y1="256.774" x2="674.034" y2="256.774" gradientUnits="userSpaceOnUse">
<stop stop-color="#4E67E0"/>
<stop offset="0.04" stop-color="#526BE1"/>
<stop offset="1" stop-color="#BCD1FF"/>
</linearGradient>
<linearGradient id="paint11_linear_41_1271" x1="634.879" y1="206.518" x2="633.367" y2="215.028" gradientUnits="userSpaceOnUse">
<stop stop-color="#2C3AFF"/>
<stop offset="0.33" stop-color="#2839F4"/>
<stop offset="0.89" stop-color="#1F39D9"/>
<stop offset="1" stop-color="#1E39D3"/>
</linearGradient>
<linearGradient id="paint12_linear_41_1271" x1="657.423" y1="226.444" x2="653.167" y2="230.971" gradientUnits="userSpaceOnUse">
<stop stop-color="#2C3AFF"/>
<stop offset="0.33" stop-color="#2839F4"/>
<stop offset="0.89" stop-color="#1F39D9"/>
<stop offset="1" stop-color="#1E39D3"/>
</linearGradient>
<linearGradient id="paint13_linear_41_1271" x1="616.508" y1="212.964" x2="582.085" y2="212.964" gradientUnits="userSpaceOnUse">
<stop stop-color="#1E39D3"/>
<stop offset="0.06" stop-color="#2B45D6"/>
<stop offset="0.39" stop-color="#6881E7"/>
<stop offset="0.66" stop-color="#95ACF4"/>
<stop offset="0.88" stop-color="#B1C7FC"/>
<stop offset="1" stop-color="#BCD1FF"/>
</linearGradient>
<linearGradient id="paint14_linear_41_1271" x1="582.085" y1="226.901" x2="569.959" y2="226.901" gradientUnits="userSpaceOnUse">
<stop stop-color="#1E39D3"/>
<stop offset="0.06" stop-color="#2B45D6"/>
<stop offset="0.39" stop-color="#6881E7"/>
<stop offset="0.66" stop-color="#95ACF4"/>
<stop offset="0.88" stop-color="#B1C7FC"/>
<stop offset="1" stop-color="#BCD1FF"/>
</linearGradient>
<linearGradient id="paint15_linear_41_1271" x1="592.959" y1="312.687" x2="592.959" y2="211.928" gradientUnits="userSpaceOnUse">
<stop stop-color="#1E39D3"/>
<stop offset="0.06" stop-color="#2B45D6"/>
<stop offset="0.39" stop-color="#6881E7"/>
<stop offset="0.66" stop-color="#95ACF4"/>
<stop offset="0.88" stop-color="#B1C7FC"/>
<stop offset="1" stop-color="#BCD1FF"/>
</linearGradient>
<linearGradient id="paint16_linear_41_1271" x1="636.47" y1="215.125" x2="641.46" y2="303.622" gradientUnits="userSpaceOnUse">
<stop stop-color="#2C3AFF"/>
<stop offset="0.33" stop-color="#2839F4"/>
<stop offset="0.89" stop-color="#1F39D9"/>
<stop offset="1" stop-color="#1E39D3"/>
</linearGradient>
<linearGradient id="paint17_linear_41_1271" x1="620.307" y1="261.094" x2="620.307" y2="255.485" gradientUnits="userSpaceOnUse">
<stop stop-color="#BCD1FF"/>
<stop offset="0.12" stop-color="#B1C7FC"/>
<stop offset="0.34" stop-color="#95ACF4"/>
<stop offset="0.61" stop-color="#6881E7"/>
<stop offset="0.94" stop-color="#2B45D6"/>
<stop offset="1" stop-color="#1E39D3"/>
</linearGradient>
<linearGradient id="paint18_linear_41_1271" x1="612.728" y1="261.094" x2="612.728" y2="255.485" gradientUnits="userSpaceOnUse">
<stop stop-color="#BCD1FF"/>
<stop offset="0.12" stop-color="#B1C7FC"/>
<stop offset="0.34" stop-color="#95ACF4"/>
<stop offset="0.61" stop-color="#6881E7"/>
<stop offset="0.94" stop-color="#2B45D6"/>
<stop offset="1" stop-color="#1E39D3"/>
</linearGradient>
<linearGradient id="paint19_linear_41_1271" x1="613.537" y1="275.398" x2="624.884" y2="275.398" gradientUnits="userSpaceOnUse">
<stop stop-color="#BCD1FF"/>
<stop offset="0.12" stop-color="#B1C7FC"/>
<stop offset="0.34" stop-color="#95ACF4"/>
<stop offset="0.61" stop-color="#6881E7"/>
<stop offset="0.94" stop-color="#2B45D6"/>
<stop offset="1" stop-color="#1E39D3"/>
</linearGradient>
<linearGradient id="paint20_linear_41_1271" x1="584.508" y1="246.43" x2="584.508" y2="298.385" gradientUnits="userSpaceOnUse">
<stop offset="0.53" stop-color="#BCD1FF"/>
<stop offset="0.59" stop-color="#B4C9FC"/>
<stop offset="0.68" stop-color="#A1B4F6"/>
<stop offset="0.79" stop-color="#8192EC"/>
<stop offset="0.91" stop-color="#5663DF"/>
<stop offset="1" stop-color="#3540D5"/>
</linearGradient>
<linearGradient id="paint21_linear_41_1271" x1="633.391" y1="218.419" x2="633.391" y2="306.91" gradientUnits="userSpaceOnUse">
<stop stop-color="#3B38FF"/>
<stop offset="0.02" stop-color="#4140FF"/>
<stop offset="0.2" stop-color="#757DFF"/>
<stop offset="0.34" stop-color="#9BAAFF"/>
<stop offset="0.46" stop-color="#B3C6FF"/>
<stop offset="0.53" stop-color="#BCD1FF"/>
<stop offset="1" stop-color="#3B38FF"/>
</linearGradient>
<linearGradient id="paint22_linear_41_1271" x1="599.658" y1="216.168" x2="599.658" y2="306.785" gradientUnits="userSpaceOnUse">
<stop offset="0.53" stop-color="#BCD1FF"/>
<stop offset="0.59" stop-color="#B4C9FC"/>
<stop offset="0.68" stop-color="#A1B4F6"/>
<stop offset="0.79" stop-color="#8192EC"/>
<stop offset="0.91" stop-color="#5663DF"/>
<stop offset="1" stop-color="#3540D5"/>
</linearGradient>
<linearGradient id="paint23_linear_41_1271" x1="648.524" y1="222.954" x2="648.524" y2="262.602" gradientUnits="userSpaceOnUse">
<stop stop-color="#3B38FF"/>
<stop offset="0.04" stop-color="#4140FF"/>
<stop offset="0.37" stop-color="#757DFF"/>
<stop offset="0.66" stop-color="#9BAAFF"/>
<stop offset="0.87" stop-color="#B3C6FF"/>
<stop offset="1" stop-color="#BCD1FF"/>
</linearGradient>
<linearGradient id="paint24_linear_41_1271" x1="477.534" y1="103.39" x2="591.336" y2="103.39" gradientUnits="userSpaceOnUse">
<stop stop-color="#2C3AFF"/>
<stop offset="0.33" stop-color="#2839F4"/>
<stop offset="0.89" stop-color="#1F39D9"/>
<stop offset="1" stop-color="#1E39D3"/>
</linearGradient>
<linearGradient id="paint25_linear_41_1271" x1="345.971" y1="103.257" x2="374.216" y2="103.257" gradientUnits="userSpaceOnUse">
<stop stop-color="white"/>
<stop offset="1" stop-color="#CDDAFE"/>
</linearGradient>
<linearGradient id="paint26_linear_41_1271" x1="376.962" y1="74.7348" x2="335.774" y2="74.7348" gradientUnits="userSpaceOnUse">
<stop stop-color="#CDDAFE"/>
<stop offset="1" stop-color="white"/>
</linearGradient>
<linearGradient id="paint27_linear_41_1271" x1="332.58" y1="109.327" x2="332.58" y2="35.8668" gradientUnits="userSpaceOnUse">
<stop stop-color="#3540D5"/>
<stop offset="0.21" stop-color="#606BE1"/>
<stop offset="0.46" stop-color="#8E9AED"/>
<stop offset="0.69" stop-color="#B0BCF7"/>
<stop offset="0.88" stop-color="#C4D1FC"/>
<stop offset="1" stop-color="#CCD9FF"/>
</linearGradient>
<linearGradient id="paint28_linear_41_1271" x1="331.874" y1="99.9478" x2="351.735" y2="128.786" gradientUnits="userSpaceOnUse">
<stop stop-color="white"/>
<stop offset="1" stop-color="#CDDAFE"/>
</linearGradient>
<linearGradient id="paint29_linear_41_1271" x1="315.385" y1="7.34313" x2="355.409" y2="51.0348" gradientUnits="userSpaceOnUse">
<stop offset="0.53" stop-color="#BCD1FF"/>
<stop offset="0.59" stop-color="#B4C9FC"/>
<stop offset="0.68" stop-color="#A1B4F6"/>
<stop offset="0.79" stop-color="#8192EC"/>
<stop offset="0.91" stop-color="#5663DF"/>
<stop offset="1" stop-color="#3540D5"/>
</linearGradient>
<linearGradient id="paint30_linear_41_1271" x1="312.961" y1="26.1642" x2="352.199" y2="26.1642" gradientUnits="userSpaceOnUse">
<stop stop-color="#2C3AFF"/>
<stop offset="0.33" stop-color="#2839F4"/>
<stop offset="0.89" stop-color="#1F39D9"/>
<stop offset="1" stop-color="#1E39D3"/>
</linearGradient>
<radialGradient id="paint31_radial_41_1271" cx="0" cy="0" r="1" gradientUnits="userSpaceOnUse" gradientTransform="translate(130.612 79.5532) scale(89.2845 89.361)">
<stop stop-color="#2CACFF"/>
<stop offset="0.08" stop-color="#2CA1FF"/>
<stop offset="0.2" stop-color="#2C86FF"/>
<stop offset="0.37" stop-color="#2C59FF"/>
<stop offset="0.47" stop-color="#2C3AFF"/>
<stop offset="0.65" stop-color="#2839F4"/>
<stop offset="0.94" stop-color="#1F39D9"/>
<stop offset="1" stop-color="#1E39D3"/>
</radialGradient>
<linearGradient id="paint32_linear_41_1271" x1="41.4719" y1="269.823" x2="97.6495" y2="269.823" gradientUnits="userSpaceOnUse">
<stop stop-color="#2C3AFF"/>
<stop offset="0.33" stop-color="#2839F4"/>
<stop offset="0.89" stop-color="#1F39D9"/>
<stop offset="1" stop-color="#1E39D3"/>
</linearGradient>
<linearGradient id="paint33_linear_41_1271" x1="46.5655" y1="221.425" x2="92.5887" y2="221.425" gradientUnits="userSpaceOnUse">
<stop stop-color="#2C3AFF"/>
<stop offset="0.33" stop-color="#2839F4"/>
<stop offset="0.89" stop-color="#1F39D9"/>
<stop offset="1" stop-color="#1E39D3"/>
</linearGradient>
<linearGradient id="paint34_linear_41_1271" x1="75.696" y1="270.348" x2="96.7096" y2="291.343" gradientUnits="userSpaceOnUse">
<stop stop-color="#132C7A"/>
<stop offset="1" stop-color="#3537EA"/>
</linearGradient>
<linearGradient id="paint35_linear_41_1271" x1="122.025" y1="564.168" x2="102.396" y2="564.168" gradientUnits="userSpaceOnUse">
<stop stop-color="#2C3AFF"/>
<stop offset="0.33" stop-color="#2839F4"/>
<stop offset="0.89" stop-color="#1F39D9"/>
<stop offset="1" stop-color="#1E39D3"/>
</linearGradient>
<linearGradient id="paint36_linear_41_1271" x1="109.332" y1="568.598" x2="148.503" y2="568.598" gradientUnits="userSpaceOnUse">
<stop stop-color="#1E39D3"/>
<stop offset="0.06" stop-color="#2B45D6"/>
<stop offset="0.39" stop-color="#6881E7"/>
<stop offset="0.66" stop-color="#95ACF4"/>
<stop offset="0.88" stop-color="#B1C7FC"/>
<stop offset="1" stop-color="#BCD1FF"/>
</linearGradient>
<linearGradient id="paint37_linear_41_1271" x1="139.399" y1="646.307" x2="165.108" y2="637.373" gradientUnits="userSpaceOnUse">
<stop stop-color="#211751"/>
<stop offset="0.14" stop-color="#201D6B"/>
<stop offset="0.42" stop-color="#1F2998"/>
<stop offset="0.66" stop-color="#1E32B8"/>
<stop offset="0.86" stop-color="#1E37CB"/>
<stop offset="1" stop-color="#1E39D3"/>
</linearGradient>
<linearGradient id="paint38_linear_41_1271" x1="130.824" y1="438.106" x2="189.63" y2="438.106" gradientUnits="userSpaceOnUse">
<stop stop-color="#1E39D3"/>
<stop offset="0.06" stop-color="#2B45D6"/>
<stop offset="0.39" stop-color="#6881E7"/>
<stop offset="0.66" stop-color="#95ACF4"/>
<stop offset="0.88" stop-color="#B1C7FC"/>
<stop offset="1" stop-color="#BCD1FF"/>
</linearGradient>
<linearGradient id="paint39_linear_41_1271" x1="140.037" y1="430.863" x2="159.484" y2="430.863" gradientUnits="userSpaceOnUse">
<stop stop-color="#F5A36D"/>
<stop offset="1" stop-color="#FFAB92"/>
</linearGradient>
<linearGradient id="paint40_linear_41_1271" x1="118.295" y1="431.429" x2="118.295" y2="492.692" gradientUnits="userSpaceOnUse">
<stop stop-color="#F8C655"/>
<stop offset="1" stop-color="#F48C15"/>
</linearGradient>
<linearGradient id="paint41_linear_41_1271" x1="145.897" y1="411.062" x2="123.031" y2="418.71" gradientUnits="userSpaceOnUse">
<stop stop-color="#FFAB92"/>
<stop offset="1" stop-color="#F5A36D"/>
</linearGradient>
<linearGradient id="paint42_linear_41_1271" x1="172.054" y1="446.368" x2="183.748" y2="446.368" gradientUnits="userSpaceOnUse">
<stop stop-color="#F5A36D"/>
<stop offset="1" stop-color="#FFAB92"/>
</linearGradient>
<radialGradient id="paint43_radial_41_1271" cx="0" cy="0" r="1" gradientUnits="userSpaceOnUse" gradientTransform="translate(333.202 646.056) scale(133.321 22.4172)">
<stop stop-color="#7B7BFA"/>
<stop offset="1" stop-color="white"/>
</radialGradient>
<linearGradient id="paint44_linear_41_1271" x1="333.821" y1="206.18" x2="333.821" y2="594.25" gradientUnits="userSpaceOnUse">
<stop stop-color="#2C3AFF"/>
<stop offset="0.33" stop-color="#2839F4"/>
<stop offset="0.89" stop-color="#1F39D9"/>
<stop offset="1" stop-color="#1E39D3"/>
</linearGradient>
<linearGradient id="paint45_linear_41_1271" x1="287.844" y1="186.308" x2="353.882" y2="366.965" gradientUnits="userSpaceOnUse">
<stop offset="0.53" stop-color="#BCD1FF"/>
<stop offset="0.59" stop-color="#B4C9FC"/>
<stop offset="0.68" stop-color="#A1B4F6"/>
<stop offset="0.79" stop-color="#8192EC"/>
<stop offset="0.91" stop-color="#5663DF"/>
<stop offset="1" stop-color="#3540D5"/>
</linearGradient>
<linearGradient id="paint46_linear_41_1271" x1="301.199" y1="280.872" x2="378.298" y2="365.038" gradientUnits="userSpaceOnUse">
<stop stop-color="#2C3AFF"/>
<stop offset="0.33" stop-color="#2839F4"/>
<stop offset="0.89" stop-color="#1F39D9"/>
<stop offset="1" stop-color="#1E39D3"/>
</linearGradient>
<linearGradient id="paint47_linear_41_1271" x1="299.44" y1="277.993" x2="376.539" y2="362.159" gradientUnits="userSpaceOnUse">
<stop offset="0.53" stop-color="#BCD1FF"/>
<stop offset="0.59" stop-color="#B4C9FC"/>
<stop offset="0.68" stop-color="#A1B4F6"/>
<stop offset="0.79" stop-color="#8192EC"/>
<stop offset="0.91" stop-color="#5663DF"/>
<stop offset="1" stop-color="#3540D5"/>
</linearGradient>
<linearGradient id="paint48_linear_41_1271" x1="324.94" y1="303.905" x2="344.197" y2="303.905" gradientUnits="userSpaceOnUse">
<stop stop-color="#2C3AFF"/>
<stop offset="0.33" stop-color="#2839F4"/>
<stop offset="0.89" stop-color="#1F39D9"/>
<stop offset="1" stop-color="#1E39D3"/>
</linearGradient>
<linearGradient id="paint49_linear_41_1271" x1="317.02" y1="328.187" x2="352.133" y2="328.187" gradientUnits="userSpaceOnUse">
<stop stop-color="#2C3AFF"/>
<stop offset="0.33" stop-color="#2839F4"/>
<stop offset="0.89" stop-color="#1F39D9"/>
<stop offset="1" stop-color="#1E39D3"/>
</linearGradient>
</defs>
</svg>
