<svg width="45" height="44" viewBox="0 0 45 44" fill="none" xmlns="http://www.w3.org/2000/svg">
<path d="M0.5 4C0.5 1.79086 2.29086 0 4.5 0H40.5C42.7091 0 44.5 1.79086 44.5 4V40C44.5 42.2091 42.7091 44 40.5 44H4.5C2.29086 44 0.5 42.2091 0.5 40V4Z" fill="#DBE2FF"/>
<path fill-rule="evenodd" clip-rule="evenodd" d="M21.8861 11.2106C22.2472 10.9298 22.7528 10.9298 23.1139 11.2106L32.1139 18.2106C32.3575 18.4001 32.5 18.6914 32.5 19V30C32.5 30.7957 32.1839 31.5587 31.6213 32.1213C31.0587 32.6839 30.2957 33 29.5 33H15.5C14.7043 33 13.9413 32.6839 13.3787 32.1213C12.8161 31.5587 12.5 30.7957 12.5 30V19C12.5 18.6914 12.6425 18.4001 12.8861 18.2106L21.8861 11.2106ZM20.5 31H24.5V23H20.5V31ZM26.5 31V22C26.5 21.4477 26.0523 21 25.5 21H19.5C18.9477 21 18.5 21.4477 18.5 22V31H15.5C15.2348 31 14.9804 30.8946 14.7929 30.7071C14.6054 30.5196 14.5 30.2652 14.5 30V19.4891L22.5 13.2669L30.5 19.4891V30C30.5 30.2652 30.3946 30.5196 30.2071 30.7071C30.0196 30.8946 29.7652 31 29.5 31H26.5Z" fill="#1545F0"/>
</svg>
