<svg width="25" height="24" viewBox="0 0 25 24" fill="none" xmlns="http://www.w3.org/2000/svg">
<g id="Style / Icon / home-Midas">
<path id="Icon (Stroke)" fill-rule="evenodd" clip-rule="evenodd" d="M11.8861 1.21065C12.2472 0.929784 12.7528 0.929784 13.1139 1.21065L22.1139 8.21065C22.3575 8.4001 22.5 8.69141 22.5 9V20C22.5 20.7957 22.1839 21.5587 21.6213 22.1213C21.0587 22.6839 20.2957 23 19.5 23H5.5C4.70435 23 3.94129 22.6839 3.37868 22.1213C2.81607 21.5587 2.5 20.7957 2.5 20V9C2.5 8.69141 2.64247 8.4001 2.88606 8.21065L11.8861 1.21065ZM10.5 21H14.5V13H10.5V21ZM16.5 21V12C16.5 11.4477 16.0523 11 15.5 11H9.5C8.94772 11 8.5 11.4477 8.5 12V21H5.5C5.23478 21 4.98043 20.8946 4.79289 20.7071C4.60536 20.5196 4.5 20.2652 4.5 20V9.48908L12.5 3.26686L20.5 9.48908V20C20.5 20.2652 20.3946 20.5196 20.2071 20.7071C20.0196 20.8946 19.7652 21 19.5 21H16.5Z" fill="#1545F0"/>
</g>
</svg>
