<svg width="76" height="76" viewBox="0 0 76 76" fill="none" xmlns="http://www.w3.org/2000/svg">
<path d="M0 7.47728C0 3.51087 3.21541 0.295471 7.18182 0.295471H68.2273C72.1937 0.295471 75.4091 3.51088 75.4091 7.47729V68.5228C75.4091 72.4892 72.1937 75.7046 68.2273 75.7046H7.18181C3.2154 75.7046 0 72.4892 0 68.5228V7.47728Z" fill="#DBE2FF"/>
<path fill-rule="evenodd" clip-rule="evenodd" d="M50.8712 22.9878C50.3817 22.9878 49.9123 23.1823 49.5662 23.5284L34.2531 38.8414L33.3832 42.3214L36.8631 41.4514L52.1762 26.1383C52.5223 25.7922 52.7167 25.3228 52.7167 24.8333C52.7167 24.3439 52.5223 23.8745 52.1762 23.5284C51.8301 23.1823 51.3606 22.9878 50.8712 22.9878ZM47.2386 21.2008C48.2021 20.2374 49.5087 19.6962 50.8712 19.6962C52.2336 19.6962 53.5403 20.2374 54.5037 21.2008C55.4671 22.1642 56.0084 23.4709 56.0084 24.8333C56.0084 26.1958 55.4671 27.5025 54.5037 28.4659L38.8683 44.1013C38.6574 44.3122 38.3931 44.4619 38.1037 44.5342L31.5204 46.18C30.9595 46.3203 30.3662 46.1559 29.9574 45.7471C29.5486 45.3383 29.3843 44.745 29.5245 44.1842L31.1703 37.6008C31.2427 37.3114 31.3923 37.0472 31.6032 36.8362L47.2386 21.2008ZM21.0465 24.6337C21.9725 23.7077 23.2283 23.1875 24.5378 23.1875H36.0587C36.9676 23.1875 37.7045 23.9244 37.7045 24.8333C37.7045 25.7423 36.9676 26.4792 36.0587 26.4792H24.5378C24.1013 26.4792 23.6827 26.6526 23.3741 26.9612C23.0654 27.2699 22.892 27.6885 22.892 28.125V51.1667C22.892 51.6032 23.0654 52.0218 23.3741 52.3305C23.6827 52.6391 24.1013 52.8125 24.5378 52.8125H47.5795C48.016 52.8125 48.4346 52.6391 48.7433 52.3305C49.0519 52.0218 49.2253 51.6032 49.2253 51.1667V39.6458C49.2253 38.7369 49.9622 38 50.8712 38C51.7801 38 52.517 38.7369 52.517 39.6458V51.1667C52.517 52.4762 51.9968 53.7321 51.0709 54.658C50.1449 55.584 48.889 56.1042 47.5795 56.1042H24.5378C23.2283 56.1042 21.9725 55.584 21.0465 54.658C20.1205 53.7321 19.6003 52.4762 19.6003 51.1667V28.125C19.6003 26.8155 20.1205 25.5596 21.0465 24.6337Z" fill="#1545F0"/>
</svg>
