<svg width="76" height="70" viewBox="0 0 76 70" fill="none" xmlns="http://www.w3.org/2000/svg">
<path d="M0 7.76898C0 3.80258 3.21541 0.587158 7.18182 0.587158H68.2273C72.1937 0.587158 75.4091 3.80257 75.4091 7.76898V62.2311C75.4091 66.1975 72.1937 69.4129 68.2273 69.4129H7.18181C3.2154 69.4129 0 66.1975 0 62.2311V7.76898Z" fill="#DBE2FF"/>
<path fill-rule="evenodd" clip-rule="evenodd" d="M32.767 21.8334C30.0401 21.8334 27.8295 24.0439 27.8295 26.7709C27.8295 29.4978 30.0401 31.7084 32.767 31.7084C35.4939 31.7084 37.7045 29.4978 37.7045 26.7709C37.7045 24.0439 35.494 21.8334 32.767 21.8334ZM24.5379 26.7709C24.5379 22.226 28.2222 18.5417 32.767 18.5417C37.3119 18.5417 40.9962 22.226 40.9962 26.7709C40.9962 31.3157 37.3119 35 32.767 35C28.2222 35 24.5379 31.3157 24.5379 26.7709ZM42.6935 19.9932C42.9189 19.1127 43.8155 18.5816 44.6961 18.8071C46.4662 19.2603 48.0352 20.2898 49.1556 21.7332C50.276 23.1766 50.8841 24.9519 50.8841 26.7791C50.8841 28.6063 50.276 30.3816 49.1556 31.825C48.0352 33.2684 46.4662 34.2979 44.6961 34.7511C43.8155 34.9765 42.9189 34.4455 42.6935 33.5649C42.468 32.6844 42.9991 31.7877 43.8796 31.5623C44.9417 31.2904 45.8831 30.6727 46.5553 29.8066C47.2276 28.9406 47.5925 27.8754 47.5925 26.7791C47.5925 25.6827 47.2276 24.6176 46.5553 23.7515C45.8831 22.8855 44.9417 22.2678 43.8796 21.9959C42.9991 21.7704 42.468 20.8738 42.6935 19.9932ZM20.3648 40.702C21.9081 39.1587 24.0012 38.2917 26.1837 38.2917H39.3504C41.5329 38.2917 43.626 39.1587 45.1693 40.702C46.7125 42.2452 47.5795 44.3383 47.5795 46.5209V49.8125C47.5795 50.7215 46.8427 51.4584 45.9337 51.4584C45.0247 51.4584 44.2879 50.7215 44.2879 49.8125V46.5209C44.2879 45.2113 43.7677 43.9555 42.8417 43.0295C41.9158 42.1036 40.6599 41.5834 39.3504 41.5834H26.1837C24.8742 41.5834 23.6183 42.1036 22.6924 43.0295C21.7664 43.9555 21.2462 45.2113 21.2462 46.5209V49.8125C21.2462 50.7215 20.5093 51.4584 19.6004 51.4584C18.6914 51.4584 17.9545 50.7215 17.9545 49.8125V46.5209C17.9545 44.3383 18.8215 42.2452 20.3648 40.702ZM49.2776 39.74C49.5049 38.8599 50.4026 38.3307 51.2827 38.5579C53.0481 39.0137 54.6121 40.043 55.7292 41.484C56.8463 42.9251 57.4532 44.6963 57.4545 46.5196V49.8125C57.4545 50.7215 56.7177 51.4584 55.8087 51.4584C54.8997 51.4584 54.1629 50.7215 54.1629 49.8125V46.5221C54.1621 45.4281 53.7979 44.3653 53.1277 43.5007C52.4574 42.6361 51.519 42.0185 50.4598 41.745C49.5796 41.5178 49.0504 40.6201 49.2776 39.74Z" fill="#1545F0"/>
</svg>
