<svg width="75" height="76" viewBox="0 0 75 76" fill="none" xmlns="http://www.w3.org/2000/svg">
<path d="M0 7.72728C0 3.76087 3.21541 0.545471 7.18182 0.545471H67.7273C71.6937 0.545471 74.9091 3.76088 74.9091 7.72729V68.2728C74.9091 72.2392 71.6937 75.4546 67.7273 75.4546H7.18181C3.2154 75.4546 0 72.2392 0 68.2727V7.72728Z" fill="#DBE2FF"/>
<path fill-rule="evenodd" clip-rule="evenodd" d="M24.4545 25C23.5571 25 22.8295 25.7275 22.8295 26.625V42.875C22.8295 43.7725 23.5571 44.5 24.4545 44.5H50.4545C51.352 44.5 52.0795 43.7725 52.0795 42.875V26.625C52.0795 25.7275 51.352 25 50.4545 25H24.4545ZM39.0795 47.75H50.4545C53.1469 47.75 55.3295 45.5674 55.3295 42.875V26.625C55.3295 23.9326 53.1469 21.75 50.4545 21.75H24.4545C21.7621 21.75 19.5795 23.9326 19.5795 26.625V42.875C19.5795 45.5674 21.7621 47.75 24.4545 47.75H35.8295V51H30.9545C30.0571 51 29.3295 51.7275 29.3295 52.625C29.3295 53.5225 30.0571 54.25 30.9545 54.25H43.9545C44.852 54.25 45.5795 53.5225 45.5795 52.625C45.5795 51.7275 44.852 51 43.9545 51H39.0795V47.75Z" fill="#1545F0"/>
<path fill-rule="evenodd" clip-rule="evenodd" d="M31.292 28.8375C31.4592 28.6704 31.7106 28.6206 31.9288 28.7115L41.828 32.8357C42.052 32.929 42.1948 33.1512 42.1867 33.3938C42.1785 33.6363 42.021 33.8484 41.7913 33.9265L38.3685 35.089L41.4503 38.1708C41.6781 38.3986 41.6781 38.768 41.4503 38.9958C41.2225 39.2236 40.8532 39.2236 40.6254 38.9958L37.5436 35.914L36.381 39.3367C36.303 39.5665 36.0908 39.724 35.8483 39.7321C35.6058 39.7403 35.3835 39.5975 35.2902 39.3735L31.166 29.4743C31.0751 29.2561 31.1249 29.0046 31.292 28.8375ZM32.7877 30.3332L35.7731 37.4989L36.7405 34.6507C36.7988 34.4791 36.9336 34.3443 37.1052 34.286L39.9535 33.3186L32.7877 30.3332Z" fill="#1545F0" stroke="#1545F0" stroke-width="0.5" stroke-linecap="round" stroke-linejoin="round"/>
</svg>
