<svg width="36" height="44" viewBox="0 0 36 44" fill="none" xmlns="http://www.w3.org/2000/svg">
<path d="M0 8.80151H8.79899V17.6005H0V8.80151ZM13.1985 17.6005C11.9851 17.6005 10.8852 18.0924 10.0881 18.8896C9.29091 19.6867 8.79899 20.7866 8.79899 22C8.79899 24.4318 10.7692 26.402 13.1985 26.402H26.3995V17.6005H13.1985ZM0 26.402V35.201H8.79899V26.402H0ZM26.3995 26.402V35.201H8.79899V44H26.3995C28.8288 44 31.0286 43.0162 32.6203 41.4219C34.2147 39.8301 35.1985 37.6303 35.1985 35.201C35.1985 32.7717 34.2147 30.5694 32.6203 28.9776C31.0286 27.3859 28.8288 26.402 26.3995 26.402ZM35.1985 8.80151C35.1985 6.3722 34.2147 4.16993 32.6203 2.57814C31.0286 0.983832 28.8288 0 26.3995 0H8.79899V8.80151H26.3995V17.6005C28.8288 17.6005 31.0286 16.6141 32.6203 15.0224C34.2147 13.4306 35.1985 11.2308 35.1985 8.80151Z" fill="#1545F0"/>
</svg>
