<svg width="25" height="24" viewBox="0 0 25 24" fill="none" xmlns="http://www.w3.org/2000/svg">
<g id="Style / Icon / mail-Midas">
<path id="Icon (Stroke)" fill-rule="evenodd" clip-rule="evenodd" d="M3.60658 5.55395L12.5 11.7793L21.3934 5.55395C21.228 5.22692 20.888 5 20.5 5H4.5C4.11204 5 3.77196 5.22692 3.60658 5.55395ZM21.5 7.92066L13.0735 13.8192C12.7291 14.0603 12.2709 14.0603 11.9265 13.8192L3.5 7.92066V18C3.5 18.5477 3.95228 19 4.5 19H20.5C21.0477 19 21.5 18.5477 21.5 18V7.92066ZM1.5 6C1.5 4.34772 2.84772 3 4.5 3H20.5C22.1523 3 23.5 4.34772 23.5 6V18C23.5 19.6523 22.1523 21 20.5 21H4.5C2.84772 21 1.5 19.6523 1.5 18V6Z" fill="#1545F0"/>
</g>
</svg>
