<svg width="45" height="44" viewBox="0 0 45 44" fill="none" xmlns="http://www.w3.org/2000/svg">
<path d="M0.5 4C0.5 1.79086 2.29086 0 4.5 0H40.5C42.7091 0 44.5 1.79086 44.5 4V40C44.5 42.2091 42.7091 44 40.5 44H4.5C2.29086 44 0.5 42.2091 0.5 40V4Z" fill="#DBE2FF"/>
<path fill-rule="evenodd" clip-rule="evenodd" d="M13.6066 15.5539L22.5 21.7793L31.3934 15.5539C31.228 15.2269 30.888 15 30.5 15H14.5C14.112 15 13.772 15.2269 13.6066 15.5539ZM31.5 17.9207L23.0735 23.8192C22.7291 24.0603 22.2709 24.0603 21.9265 23.8192L13.5 17.9207V28C13.5 28.5477 13.9523 29 14.5 29H30.5C31.0477 29 31.5 28.5477 31.5 28V17.9207ZM11.5 16C11.5 14.3477 12.8477 13 14.5 13H30.5C32.1523 13 33.5 14.3477 33.5 16V28C33.5 29.6523 32.1523 31 30.5 31H14.5C12.8477 31 11.5 29.6523 11.5 28V16Z" fill="#1545F0"/>
</svg>
