<svg width="25" height="24" viewBox="0 0 25 24" fill="none" xmlns="http://www.w3.org/2000/svg">
<path fill-rule="evenodd" clip-rule="evenodd" d="M7.5 3C6.94772 3 6.5 3.44772 6.5 4V20C6.5 20.5523 6.94771 21 7.5 21H17.5C18.0523 21 18.5 20.5523 18.5 20V4C18.5 3.44772 18.0523 3 17.5 3H7.5ZM4.5 4C4.5 2.34315 5.84315 1 7.5 1H17.5C19.1569 1 20.5 2.34315 20.5 4V20C20.5 21.6569 19.1569 23 17.5 23H7.5C5.84315 23 4.5 21.6569 4.5 20V4ZM11.5 18C11.5 17.4477 11.9477 17 12.5 17H12.51C13.0623 17 13.51 17.4477 13.51 18C13.51 18.5523 13.0623 19 12.51 19H12.5C11.9477 19 11.5 18.5523 11.5 18Z" fill="#1545F0"/>
</svg>
